<svg width="3350" height="506" viewBox="0 0 3350 506" fill="none" xmlns="http://www.w3.org/2000/svg">
<path d="M2140.6 382.8C2141.13 384.133 2141.13 385.6 2140.6 387.2C2140.33 388.533 2139.67 389.733 2138.6 390.8C2137.53 391.6 2136.07 392 2134.2 392C2132.6 392 2131.27 391.6 2130.2 390.8C2129.13 390 2128.33 388.667 2127.8 386.8L2036.2 146.8H2040.2L1948.6 386.8C1947.27 390.267 1945 392 1941.8 392C1940.2 392 1938.73 391.6 1937.4 390.8C1936.33 389.733 1935.67 388.533 1935.4 387.2C1935.13 385.867 1935.27 384.4 1935.8 382.8L2031.8 133.2C2032.33 131.6 2033.13 130.533 2034.2 130C2035.27 129.2 2036.6 128.8 2038.2 128.8C2039.8 128.8 2041.13 129.2 2042.2 130C2043.27 130.533 2044.07 131.6 2044.6 133.2L2140.6 382.8ZM2103 311.2L2107 324H1965.4L1970.2 311.2H2103ZM2248.11 189.6C2271.57 189.6 2290.37 196 2304.51 208.8C2318.64 221.6 2325.71 239.867 2325.71 263.6V385.2C2325.71 387.067 2325.04 388.667 2323.71 390C2322.64 391.333 2321.04 392 2318.91 392C2316.77 392 2315.04 391.333 2313.71 390C2312.64 388.667 2312.11 387.067 2312.11 385.2V263.6C2312.11 244.4 2306.51 229.467 2295.31 218.8C2284.11 208.133 2267.97 202.8 2246.91 202.8C2230.91 202.8 2217.31 205.867 2206.11 212C2194.91 218.133 2186.51 226 2180.91 235.6C2175.31 244.933 2172.51 254.667 2172.51 264.8V385.2C2172.51 387.067 2171.84 388.667 2170.51 390C2169.44 391.333 2167.84 392 2165.71 392C2163.57 392 2161.84 391.333 2160.51 390C2159.44 388.667 2158.91 387.067 2158.91 385.2V198.8C2158.91 196.933 2159.44 195.333 2160.51 194C2161.84 192.667 2163.57 192 2165.71 192C2167.84 192 2169.44 192.667 2170.51 194C2171.84 195.333 2172.51 196.933 2172.51 198.8V228H2174.11C2179.71 217.067 2188.77 208 2201.31 200.8C2213.84 193.333 2229.44 189.6 2248.11 189.6ZM2444.38 394.4C2424.11 394.4 2406.51 389.867 2391.58 380.8C2376.64 371.733 2365.18 359.467 2357.18 344C2349.18 328.533 2345.18 311.333 2345.18 292.4C2345.18 272.933 2349.58 255.467 2358.38 240C2367.18 224.267 2379.31 212 2394.78 203.2C2410.51 194.133 2428.24 189.6 2447.98 189.6C2466.38 189.6 2482.64 193.067 2496.78 200C2511.18 206.667 2522.38 216.667 2530.38 230C2538.64 243.067 2542.78 258.8 2542.78 277.2V385.2C2542.78 387.067 2542.11 388.667 2540.78 390C2539.71 391.333 2538.11 392 2535.98 392C2533.84 392 2532.11 391.333 2530.78 390C2529.71 388.667 2529.18 387.067 2529.18 385.2V348.8H2527.58C2525.44 353.867 2521.04 360 2514.38 367.2C2507.98 374.133 2498.78 380.4 2486.78 386C2475.04 391.6 2460.91 394.4 2444.38 394.4ZM2359.18 292.4C2359.18 308.933 2362.38 324 2368.78 337.6C2375.44 350.933 2385.18 361.6 2397.98 369.6C2411.04 377.333 2426.51 381.2 2444.38 381.2C2462.24 381.2 2477.58 377.6 2490.38 370.4C2503.18 363.2 2512.78 353.467 2519.18 341.2C2525.84 328.933 2529.18 315.067 2529.18 299.6V277.2C2529.18 253.467 2521.71 235.2 2506.78 222.4C2492.11 209.333 2472.78 202.8 2448.78 202.8C2431.18 202.8 2415.58 206.667 2401.98 214.4C2388.38 222.133 2377.84 232.8 2370.38 246.4C2362.91 260 2359.18 275.333 2359.18 292.4ZM2581.35 111.2C2583.49 111.2 2585.09 111.867 2586.15 113.2C2587.49 114.533 2588.15 116.133 2588.15 118V385.2C2588.15 387.067 2587.49 388.667 2586.15 390C2585.09 391.333 2583.49 392 2581.35 392C2579.22 392 2577.49 391.333 2576.15 390C2575.09 388.667 2574.55 387.067 2574.55 385.2V118C2574.55 116.133 2575.09 114.533 2576.15 113.2C2577.49 111.867 2579.22 111.2 2581.35 111.2ZM2779.63 192C2781.76 192 2783.36 192.667 2784.43 194C2785.76 195.333 2786.43 196.933 2786.43 198.8V372C2786.43 396 2782.29 415.333 2774.03 430C2766.03 444.933 2755.23 455.6 2741.63 462C2728.03 468.4 2712.69 471.6 2695.63 471.6C2683.36 471.6 2671.23 470.267 2659.23 467.6C2647.23 464.933 2638.56 461.467 2633.23 457.2C2631.89 456.4 2630.96 455.467 2630.43 454.4C2630.16 453.6 2630.03 452.667 2630.03 451.6C2630.03 449.733 2630.69 448.133 2632.03 446.8C2633.36 445.467 2634.96 444.8 2636.83 444.8C2638.16 445.067 2639.36 445.333 2640.43 445.6L2642.03 446.4L2643.63 447.2C2649.49 450.133 2656.96 452.667 2666.03 454.8C2675.36 457.2 2685.23 458.4 2695.63 458.4C2718.83 458.4 2737.49 452 2751.63 439.2C2765.76 426.4 2772.83 404 2772.83 372V354.4H2771.23C2765.36 365.333 2756.29 374.4 2744.03 381.6C2731.76 388.533 2716.56 392 2698.43 392C2674.16 392 2654.96 385.6 2640.83 372.8C2626.69 360 2619.63 341.733 2619.63 318V198.8C2619.63 196.933 2620.16 195.333 2621.23 194C2622.56 192.667 2624.29 192 2626.43 192C2628.56 192 2630.16 192.667 2631.23 194C2632.56 195.333 2633.23 196.933 2633.23 198.8V318C2633.23 337.2 2638.83 352.133 2650.03 362.8C2661.23 373.467 2677.36 378.8 2698.43 378.8C2714.43 378.8 2728.03 375.867 2739.23 370C2750.43 363.867 2758.83 356.267 2764.43 347.2C2770.03 337.867 2772.83 328.4 2772.83 318.8V198.8C2772.83 196.933 2773.36 195.333 2774.43 194C2775.76 192.667 2777.49 192 2779.63 192ZM2841.9 138C2841.9 136.133 2842.43 134.533 2843.5 133.2C2844.83 131.867 2846.56 131.2 2848.7 131.2C2850.83 131.2 2852.43 131.867 2853.5 133.2C2854.83 134.533 2855.5 136.133 2855.5 138V324.4C2855.5 343.867 2859.76 357.733 2868.3 366C2877.1 374.267 2889.63 378.4 2905.9 378.4H2914.3C2916.16 378.4 2917.76 379.067 2919.1 380.4C2920.43 381.733 2921.1 383.333 2921.1 385.2C2921.1 387.067 2920.43 388.667 2919.1 390C2917.76 391.333 2916.16 392 2914.3 392H2905.9C2885.63 392 2869.9 386.533 2858.7 375.6C2847.5 364.667 2841.9 347.6 2841.9 324.4V138ZM2808.3 204.8C2806.7 204.8 2805.23 204.267 2803.9 203.2C2802.56 201.867 2801.9 200.267 2801.9 198.4C2801.9 196.533 2802.56 195.067 2803.9 194C2805.23 192.667 2806.7 192 2808.3 192H2913.1C2914.96 192 2916.43 192.667 2917.5 194C2918.83 195.067 2919.5 196.533 2919.5 198.4C2919.5 200.267 2918.83 201.867 2917.5 203.2C2916.43 204.267 2914.96 204.8 2913.1 204.8H2808.3ZM2954.25 142.4C2950.78 142.4 2947.98 141.467 2945.85 139.6C2943.98 137.467 2943.05 134.667 2943.05 131.2C2943.05 127.733 2943.98 125.067 2945.85 123.2C2947.98 121.067 2950.78 120 2954.25 120C2957.71 120 2960.38 121.067 2962.25 123.2C2964.38 125.067 2965.45 127.733 2965.45 131.2C2965.45 134.667 2964.38 137.467 2962.25 139.6C2960.38 141.467 2957.71 142.4 2954.25 142.4ZM2954.25 192C2956.38 192 2957.98 192.667 2959.05 194C2960.38 195.333 2961.05 196.933 2961.05 198.8V385.2C2961.05 387.067 2960.38 388.667 2959.05 390C2957.98 391.333 2956.38 392 2954.25 392C2952.11 392 2950.38 391.333 2949.05 390C2947.98 388.667 2947.45 387.067 2947.45 385.2V198.8C2947.45 196.933 2947.98 195.333 2949.05 194C2950.38 192.667 2952.11 192 2954.25 192ZM3152.78 231.6C3144.51 222.8 3135.04 215.867 3124.38 210.8C3113.71 205.467 3101.18 202.8 3086.78 202.8C3069.98 202.8 3054.91 206.667 3041.58 214.4C3028.24 221.867 3017.84 232.4 3010.38 246C3002.91 259.6 2999.18 274.933 2999.18 292C2999.18 309.067 3002.91 324.4 3010.38 338C3017.84 351.333 3028.24 361.867 3041.58 369.6C3054.91 377.333 3069.98 381.2 3086.78 381.2C3103.31 381.2 3117.44 377.867 3129.18 371.2C3141.18 364.533 3150.64 356.267 3157.58 346.4C3159.18 344.533 3160.91 343.6 3162.78 343.6C3163.84 343.6 3164.91 343.867 3165.98 344.4C3167.04 344.933 3167.84 345.733 3168.38 346.8C3169.18 347.867 3169.58 349.067 3169.58 350.4C3169.58 352.267 3169.04 353.867 3167.98 355.2C3159.18 366.4 3148.11 375.733 3134.78 383.2C3121.44 390.667 3105.44 394.4 3086.78 394.4C3067.84 394.4 3050.64 390 3035.18 381.2C3019.71 372.133 3007.44 359.867 2998.38 344.4C2989.58 328.667 2985.18 311.2 2985.18 292C2985.18 272.533 2989.58 255.067 2998.38 239.6C3007.44 223.867 3019.71 211.6 3035.18 202.8C3050.64 194 3067.84 189.6 3086.78 189.6C3103.58 189.6 3118.11 192.667 3130.38 198.8C3142.64 204.667 3153.44 212.533 3162.78 222.4C3164.11 223.733 3164.78 225.467 3164.78 227.6C3164.78 229.467 3164.11 231.067 3162.78 232.4C3161.71 233.467 3160.11 234 3157.98 234C3156.91 234 3155.98 233.867 3155.18 233.6C3154.38 233.067 3153.58 232.4 3152.78 231.6ZM3205.15 237.2C3205.15 245.2 3207.55 251.867 3212.35 257.2C3217.15 262.533 3223.15 266.8 3230.35 270C3237.55 273.2 3247.02 276.667 3258.75 280.4C3272.89 285.2 3284.09 289.6 3292.35 293.6C3300.89 297.6 3308.09 303.333 3313.95 310.8C3319.82 318 3322.75 327.333 3322.75 338.8C3322.75 350.267 3319.69 360.267 3313.55 368.8C3307.42 377.067 3299.15 383.467 3288.75 388C3278.62 392.267 3267.15 394.4 3254.35 394.4C3236.49 394.4 3221.42 391.467 3209.15 385.6C3197.15 379.467 3187.82 372.133 3181.15 363.6C3180.35 362.533 3179.69 361.6 3179.15 360.8C3178.62 359.733 3178.35 358.667 3178.35 357.6C3178.35 355.733 3179.02 354.133 3180.35 352.8C3181.69 351.2 3183.29 350.4 3185.15 350.4C3187.29 350.4 3189.42 351.467 3191.55 353.6C3206.75 372 3227.42 381.2 3253.55 381.2C3270.09 381.2 3283.42 377.6 3293.55 370.4C3303.69 363.2 3308.75 353.067 3308.75 340C3308.75 330.667 3306.09 323.067 3300.75 317.2C3295.69 311.067 3289.42 306.4 3281.95 303.2C3274.75 299.733 3264.62 295.867 3251.55 291.6C3238.22 287.333 3227.55 283.467 3219.55 280C3211.55 276.267 3204.75 271.2 3199.15 264.8C3193.82 258.133 3191.15 249.6 3191.15 239.2C3191.15 229.333 3193.69 220.667 3198.75 213.2C3204.09 205.467 3211.42 199.6 3220.75 195.6C3230.09 191.6 3240.75 189.6 3252.75 189.6C3265.82 189.6 3277.55 191.867 3287.95 196.4C3298.35 200.667 3306.62 206.267 3312.75 213.2C3313.55 214 3314.22 214.933 3314.75 216C3315.29 216.8 3315.55 217.733 3315.55 218.8C3315.55 220.667 3314.89 222.267 3313.55 223.6C3312.22 224.933 3310.62 225.6 3308.75 225.6C3306.89 225.6 3305.15 224.8 3303.55 223.2C3296.35 216.267 3288.75 211.2 3280.75 208C3273.02 204.533 3263.69 202.8 3252.75 202.8C3237.82 202.8 3226.09 205.867 3217.55 212C3209.29 218.133 3205.15 226.533 3205.15 237.2Z" fill="#F0F0F0"/>
<path d="M405.5 118H505V406H566.5V118H666V56H405.5V118ZM882.348 216.5H740.848V56.5H679.348V406H740.848V278H882.348V406H944.348V56.5H882.348V216.5ZM1036.26 344V278H1184.26V216.5H1036.26V118H1225.26V56.5H974.758V406L1225.26 405V343.5L1036.26 344ZM1447.29 56.5V286.5L1304.29 56.5L1244.29 56V406H1305.79V176L1448.79 406H1509.29V56.5H1447.29ZM1652.7 56.5L1518.7 405.5H1584.7L1599.7 367H1753.7L1768.7 405.5H1834.7L1699.7 56.5H1652.7ZM1729.7 305H1623.2L1676.2 167L1729.7 305Z" fill="#F0F0F0"/>
<path d="M200.222 46L45.3333 311.263H102L204 140.737L324.889 360.526H22.6667L0 406H408L200.222 46Z" fill="#03AA81"/>
<path d="M1741 91.5322L1766.77 81.4983L1892.5 405.695L1863.34 405.695L1741 91.5322Z" fill="#03AA81"/>
</svg>
