<svg width="3471" height="390" viewBox="0 0 3471 390" fill="none" xmlns="http://www.w3.org/2000/svg">
<path d="M2137.45 107.362C2104.65 107.362 2082.65 123.362 2072.65 143.362C2060.25 118.962 2031.85 107.362 2009.45 107.362C1978.25 107.362 1955.05 128.562 1951.45 134.162H1949.85V116.562C1949.85 112.962 1947.45 109.762 1943.05 109.762C1938.65 109.762 1936.25 112.962 1936.25 116.562V302.962C1936.25 306.562 1938.65 309.762 1943.05 309.762C1947.45 309.762 1949.85 306.562 1949.85 302.962V166.962C1949.85 140.962 1975.45 120.562 2007.05 120.562C2038.25 120.562 2063.85 141.362 2063.85 166.962V302.962C2063.85 306.562 2066.25 309.762 2070.65 309.762C2075.05 309.762 2077.45 306.562 2077.45 302.962V166.962C2077.45 141.362 2102.65 120.562 2134.65 120.562C2167.45 120.562 2191.45 136.562 2191.45 171.762V302.962C2191.45 306.562 2193.85 309.762 2198.25 309.762C2202.65 309.762 2205.05 306.562 2205.05 302.962V167.762C2205.05 128.962 2173.05 107.362 2137.45 107.362Z" fill="#2C2E30"/>
<path d="M2323.68 312.162C2378.48 312.162 2402.48 276.562 2406.88 266.562H2408.48V302.962C2408.48 306.562 2410.88 309.762 2415.28 309.762C2419.68 309.762 2422.08 306.562 2422.08 302.962V194.962C2422.08 138.162 2381.68 107.362 2327.28 107.362C2267.28 107.362 2224.48 151.362 2224.48 210.162C2224.48 266.162 2261.28 312.162 2323.68 312.162ZM2238.48 210.162C2238.48 158.562 2274.08 120.562 2328.08 120.562C2374.88 120.562 2408.48 146.562 2408.48 194.962V217.362C2408.48 262.562 2379.28 298.962 2323.68 298.962C2268.08 298.962 2238.48 258.962 2238.48 210.162Z" fill="#2C2E30"/>
<path d="M2540.65 309.762C2595.45 309.762 2618.65 275.362 2624.25 264.562H2625.85V281.762C2625.85 350.962 2582.65 376.162 2537.85 376.162C2507.85 376.162 2486.65 363.362 2477.45 358.162C2475.85 356.962 2473.85 356.562 2472.65 356.562C2469.05 356.562 2465.85 359.762 2465.85 363.362C2465.85 364.962 2466.65 367.362 2469.05 368.962C2479.45 377.362 2508.65 389.362 2537.45 389.362C2589.45 389.362 2639.45 357.762 2639.45 281.762V194.962C2639.45 138.162 2598.65 107.362 2546.25 107.362C2483.05 107.362 2441.85 152.562 2441.85 210.562C2441.85 265.762 2478.65 309.762 2540.65 309.762ZM2455.85 211.762C2455.85 158.562 2492.65 120.562 2547.05 120.562C2591.85 120.562 2625.85 146.562 2625.85 194.962V217.362C2625.85 262.562 2596.25 296.562 2542.25 296.562C2485.45 296.562 2455.85 259.362 2455.85 211.762Z" fill="#2C2E30"/>
<path d="M2758.43 312.162C2813.23 312.162 2837.23 276.562 2841.63 266.562H2843.23V302.962C2843.23 306.562 2845.63 309.762 2850.03 309.762C2854.43 309.762 2856.83 306.562 2856.83 302.962V194.962C2856.83 138.162 2816.43 107.362 2762.03 107.362C2702.03 107.362 2659.23 151.362 2659.23 210.162C2659.23 266.162 2696.03 312.162 2758.43 312.162ZM2673.23 210.162C2673.23 158.562 2708.83 120.562 2762.83 120.562C2809.63 120.562 2843.23 146.562 2843.23 194.962V217.362C2843.23 262.562 2814.03 298.962 2758.43 298.962C2702.83 298.962 2673.23 258.962 2673.23 210.162Z" fill="#2C2E30"/>
<path d="M3019.4 296.962H2896.2L3020.2 120.162C3021 118.962 3021.4 117.762 3021.4 116.562C3021.4 112.562 3018.2 109.762 3014.6 109.762H2889.4C2885.8 109.762 2883 112.562 2883 116.162C2883 119.762 2885.8 122.562 2889.4 122.562H3002.6L2878.6 298.962C2877.8 300.162 2877.4 301.362 2877.4 302.962C2877.4 306.562 2880.2 309.762 2884.2 309.762H3019.4C3023 309.762 3025.8 306.962 3025.8 303.362C3025.8 299.762 3023 296.962 3019.4 296.962Z" fill="#2C2E30"/>
<path d="M3057.37 60.1624C3064.17 60.1624 3068.57 55.7624 3068.57 48.9624C3068.57 42.1624 3064.17 37.7624 3057.37 37.7624C3050.57 37.7624 3046.17 42.1624 3046.17 48.9624C3046.17 55.7624 3050.57 60.1624 3057.37 60.1624ZM3050.57 302.962C3050.57 306.562 3052.97 309.762 3057.37 309.762C3061.77 309.762 3064.17 306.562 3064.17 302.962V116.562C3064.17 112.962 3061.77 109.762 3057.37 109.762C3052.97 109.762 3050.57 112.962 3050.57 116.562V302.962Z" fill="#2C2E30"/>
<path d="M3187.9 107.362C3147.9 107.362 3123.9 126.562 3113.9 145.762H3112.3V116.562C3112.3 112.962 3109.9 109.762 3105.5 109.762C3101.1 109.762 3098.7 112.962 3098.7 116.562V302.962C3098.7 306.562 3101.1 309.762 3105.5 309.762C3109.9 309.762 3112.3 306.562 3112.3 302.962V182.562C3112.3 153.762 3135.9 120.562 3186.7 120.562C3229.5 120.562 3251.9 143.362 3251.9 181.362V302.962C3251.9 306.562 3254.3 309.762 3258.7 309.762C3263.1 309.762 3265.5 306.562 3265.5 302.962V181.362C3265.5 132.962 3233.9 107.362 3187.9 107.362Z" fill="#2C2E30"/>
<path d="M3457.78 195.362H3299.78C3305.38 150.962 3336.98 120.562 3380.98 120.562C3422.98 120.562 3457.78 146.962 3457.78 195.362ZM3284.98 209.762C3284.98 268.962 3324.18 312.162 3388.98 312.162C3415.38 312.162 3438.98 302.562 3454.58 289.362C3456.18 288.162 3457.38 286.162 3457.38 283.362C3457.38 279.362 3454.58 276.562 3451.38 276.562C3449.38 276.562 3448.18 276.962 3446.18 278.562C3433.78 289.362 3414.98 298.962 3388.98 298.962C3331.78 298.962 3298.98 260.962 3298.98 209.762V208.162H3453.38C3464.98 208.162 3470.58 202.562 3470.58 188.962C3470.58 141.762 3432.98 107.362 3380.98 107.362C3325.38 107.362 3284.98 150.562 3284.98 209.762Z" fill="#2C2E30"/>
<path d="M372.751 72.7625H472.251V360.762H533.751V72.7625H633.251V10.7624H372.751V72.7625Z" fill="#2C2E30"/>
<path d="M849.599 206.762H708.099V11.2624H646.599V360.762H708.099V268.262H849.599V360.762H911.599V11.2624H849.599V206.762Z" fill="#2C2E30"/>
<path d="M1003.51 298.762V268.262H1151.51V206.762H1003.51V72.7625H1192.51V11.2624H942.009V360.762L1192.51 359.762V298.262L1003.51 298.762Z" fill="#2C2E30"/>
<path d="M1414.54 11.2624V241.262L1271.54 11.2624L1211.54 10.7624V360.762H1273.04V130.762L1416.04 360.762H1476.54V11.2624H1414.54Z" fill="#2C2E30"/>
<path d="M1619.95 11.2624L1485.95 360.262H1551.95L1566.95 321.762H1720.95L1735.95 360.262H1801.95L1666.95 11.2624H1619.95ZM1696.95 259.762H1590.45L1643.45 121.762L1696.95 259.762Z" fill="#2C2E30"/>
<path d="M60.8356 263.483H113.489L206.975 91.0763L330.663 308.41H31.1321L0.966797 360.762H413.251L206.975 0.762444L60.8356 263.483Z" fill="#038FF4"/>
<path d="M1708.25 46.2944L1734.02 36.2605L1860.75 360.458L1830.6 360.458L1708.25 46.2944Z" fill="#038FF4"/>
</svg>
