<svg width="776" height="806" viewBox="0 0 776 806" fill="none" xmlns="http://www.w3.org/2000/svg">
<path d="M1 665.5C1 639 38.8 612.5 114.3 592.2C265.4 551.7 510.3 551.7 661.4 592.2C737 612.4 774.7 639 774.7 665.5C774.7 692 736.9 718.5 661.4 738.8C510.3 779.3 265.4 779.3 114.3 738.8C38.7 718.6 1 692.1 1 665.5Z" stroke="url(#paint0_linear_252_655)" stroke-width="2" stroke-miterlimit="10"/>
<path d="M625.301 588.9C494.101 553.7 281.401 553.7 150.201 588.9C84.6008 606.5 51.8008 629.5 51.8008 652.6C51.8008 675.6 84.6008 698.7 150.201 716.2C281.401 751.4 494.101 751.4 625.301 716.2C690.901 698.6 723.701 675.6 723.701 652.5C723.701 629.5 690.901 606.5 625.301 588.9ZM565.001 699.9C467.201 726.1 308.601 726.1 210.801 699.9C161.901 686.8 137.401 669.6 137.401 652.4C137.401 635.2 161.901 618 210.801 604.9C308.601 578.7 467.201 578.7 565.001 604.9C613.901 618 638.401 635.2 638.401 652.4C638.301 669.6 613.901 686.8 565.001 699.9Z" fill="url(#paint1_linear_252_655)"/>
<path d="M251.1 644.7C251.1 635.3 264.5 626 291.2 618.8C344.6 604.5 431.2 604.5 484.6 618.8C511.3 626 524.7 635.3 524.7 644.7C524.7 654.1 511.3 663.4 484.6 670.6C431.2 684.9 344.6 684.9 291.2 670.6C264.4 663.5 251.1 654.1 251.1 644.7Z" fill="url(#paint2_linear_252_655)"/>
<path d="M51.9004 652.5C51.9004 629.5 84.7004 606.4 150.3 588.8C215.9 571.2 301.9 562.4 387.8 562.4V585.3C323.7 585.3 259.6 591.9 210.7 605C161.8 618.1 137.3 635.3 137.3 652.5H51.9004Z" fill="url(#paint3_linear_252_655)"/>
<path d="M137.4 546.9H51.9004V652.4H137.4V546.9Z" fill="url(#paint4_linear_252_655)"/>
<path d="M137.4 546.9C137.4 529.7 161.9 512.5 210.8 499.4C259.7 486.3 323.8 479.7 387.9 479.7V585.2C323.8 585.2 259.7 591.8 210.8 604.9C161.9 618 137.4 635.2 137.4 652.4V546.9V546.9Z" fill="url(#paint5_linear_252_655)"/>
<path d="M51.9004 546.9C51.9004 523.9 84.7004 500.8 150.3 483.2C215.9 465.6 301.9 456.8 387.8 456.8V479.7C323.7 479.7 259.6 486.3 210.7 499.4C161.8 512.5 137.3 529.7 137.3 546.9H51.9004Z" fill="url(#paint6_linear_252_655)"/>
<path d="M387.801 479.8C451.901 479.8 516.001 486.4 564.901 499.5C613.801 512.6 638.301 529.8 638.301 547V652.5C638.301 635.3 613.801 618.1 564.901 605C516.001 591.9 451.901 585.3 387.801 585.3V479.8V479.8Z" fill="url(#paint7_linear_252_655)"/>
<path d="M723.801 546.9H638.301V652.4H723.801V546.9Z" fill="url(#paint8_linear_252_655)"/>
<path d="M387.801 479.8V456.9C473.801 456.9 559.801 465.7 625.301 483.3C690.901 500.9 723.701 523.9 723.701 547H638.201C638.201 529.8 613.701 512.6 564.801 499.5C515.901 486.4 451.901 479.8 387.801 479.8Z" fill="url(#paint9_linear_252_655)"/>
<path d="M51.9004 652.5H137.4C137.4 669.7 161.9 686.9 210.8 700C259.7 713.1 323.8 719.7 387.9 719.7V742.6C301.9 742.6 215.9 733.8 150.4 716.2C84.9004 698.6 51.9004 675.5 51.9004 652.5Z" fill="url(#paint10_linear_252_655)"/>
<path d="M51.9004 546.9C51.9004 569.9 84.7004 593 150.3 610.6C215.9 628.2 301.9 637 387.8 637V742.5C301.8 742.5 215.8 733.7 150.3 716.1C84.8004 698.5 51.9004 675.5 51.9004 652.4V546.9V546.9Z" fill="url(#paint11_linear_252_655)"/>
<path d="M51.9004 546.9H137.4C137.4 564.1 161.9 581.3 210.8 594.4C259.7 607.5 323.8 614.1 387.9 614.1V637C301.9 637 215.9 628.2 150.4 610.6C84.9004 593 51.9004 570 51.9004 546.9Z" fill="url(#paint12_linear_252_655)"/>
<path d="M383.8 459.6C510.439 459.6 613.1 356.939 613.1 230.3C613.1 103.661 510.439 1 383.8 1C257.161 1 154.5 103.661 154.5 230.3C154.5 356.939 257.161 459.6 383.8 459.6Z" stroke="url(#paint13_linear_252_655)" stroke-width="2" stroke-miterlimit="10" stroke-linecap="round" stroke-linejoin="round"/>
<path d="M163.1 172.8C168.07 172.8 172.1 168.771 172.1 163.8C172.1 158.829 168.07 154.8 163.1 154.8C158.129 154.8 154.1 158.829 154.1 163.8C154.1 168.771 158.129 172.8 163.1 172.8Z" fill="url(#paint14_linear_252_655)"/>
<path d="M549.9 396.3C554.871 396.3 558.9 392.271 558.9 387.3C558.9 382.329 554.871 378.3 549.9 378.3C544.93 378.3 540.9 382.329 540.9 387.3C540.9 392.271 544.93 396.3 549.9 396.3Z" fill="url(#paint15_linear_252_655)"/>
<path d="M546.6 79.1C551.57 79.1 555.6 75.0705 555.6 70.1C555.6 65.1294 551.57 61.1 546.6 61.1C541.629 61.1 537.6 65.1294 537.6 70.1C537.6 75.0705 541.629 79.1 546.6 79.1Z" fill="url(#paint16_linear_252_655)"/>
<path d="M251.1 544C251.1 553.4 264.4 562.8 291.2 569.9C344.6 584.2 431.2 584.2 484.6 569.9C511.3 562.7 524.7 553.4 524.7 544V559.7C524.7 569.1 511.3 578.4 484.6 585.6C431.2 599.9 344.6 599.9 291.2 585.6C264.5 578.4 251.1 569.1 251.1 559.7V544V544Z" fill="url(#paint17_linear_252_655)"/>
<path d="M251.1 544C251.1 534.6 264.5 525.3 291.2 518.1C344.6 503.8 431.2 503.8 484.6 518.1C511.3 525.3 524.7 534.6 524.7 544C524.7 553.4 511.3 562.7 484.6 569.9C431.2 584.2 344.6 584.2 291.2 569.9C264.4 562.8 251.1 553.4 251.1 544Z" fill="url(#paint18_linear_252_655)"/>
<path d="M310.199 544C310.199 539 317.299 534.1 331.399 530.3C359.699 522.7 405.599 522.7 433.899 530.3C448.099 534.1 455.099 539.1 455.099 544C455.099 549 447.999 553.9 433.899 557.7C405.599 565.3 359.699 565.3 331.399 557.7C317.199 554 310.199 549 310.199 544Z" fill="url(#paint19_linear_252_655)"/>
<path d="M338.6 433.7C338.6 436.7 342.9 439.7 351.5 442C368.7 446.6 396.6 446.6 413.8 442C422.4 439.7 426.7 436.7 426.7 433.7V486.8C426.7 489.8 422.4 492.8 413.8 495.1C396.6 499.7 368.7 499.7 351.5 495.1C342.9 492.8 338.6 489.8 338.6 486.8V433.7Z" fill="url(#paint20_linear_252_655)"/>
<path d="M310.199 372.4C310.199 377.4 317.299 382.3 331.399 386.1C359.699 393.7 405.599 393.7 433.899 386.1C448.099 382.3 455.099 377.3 455.099 372.4V459.8C455.099 464.8 447.999 469.7 433.899 473.5C405.599 481.1 359.699 481.1 331.399 473.5C317.199 469.7 310.199 464.7 310.199 459.8V372.4Z" fill="url(#paint21_linear_252_655)"/>
<path d="M435.799 430.5C406.499 438.3 358.899 438.3 329.599 430.5C319.799 427.9 312.999 424.6 310.199 421.3V426.4C314.199 429.4 320.299 432 328.599 434.2C343.499 438.2 363.099 440.2 382.699 440.2C402.299 440.2 421.899 438.2 436.799 434.2C445.099 432 451.299 429.3 455.199 426.4V421.3C452.399 424.5 445.499 427.8 435.799 430.5Z" fill="url(#paint22_linear_252_655)"/>
<path d="M435.799 411.7C406.499 419.5 358.899 419.5 329.599 411.7C319.799 409.1 312.999 405.8 310.199 402.5V407.6C314.199 410.6 320.299 413.2 328.599 415.4C343.499 419.4 363.099 421.4 382.699 421.4C402.299 421.4 421.899 419.4 436.799 415.4C445.099 413.2 451.299 410.5 455.199 407.6V402.5C452.399 405.8 445.499 409.1 435.799 411.7Z" fill="url(#paint23_linear_252_655)"/>
<path d="M310.199 372.4C310.199 367.4 317.299 362.5 331.399 358.7C359.699 351.1 405.599 351.1 433.899 358.7C448.099 362.5 455.099 367.5 455.099 372.4C455.099 377.4 447.999 382.3 433.899 386.1C405.599 393.7 359.699 393.7 331.399 386.1C317.199 382.3 310.199 377.4 310.199 372.4Z" fill="url(#paint24_linear_252_655)"/>
<path d="M502.7 233.6C502.7 167 448.5 113.1 381.8 113.6C315.8 114.1 262.2 168.5 262.6 234.5C262.8 266.7 275.8 295.9 296.6 317.4C303.7 324.7 307.7 334.6 307.7 344.9V374.9C307.7 380 315 385.2 329.7 389.1C359 396.9 406.4 396.9 435.7 389.1C450.3 385.2 457.7 380 457.7 374.9V344.9C457.7 334.5 461.8 324.6 469 317.1C489.8 295.4 502.7 266 502.7 233.6Z" fill="url(#paint25_linear_252_655)"/>
<path d="M416.2 455.1C416.2 454 415.2 453.1 414.1 453.2C386.4 456.6 352.4 455.3 329.5 449.2C319.7 446.6 312.9 443.3 310.1 440V445.1C314.1 448.1 320.2 450.7 328.5 452.9C343.4 456.9 363 458.9 382.6 458.9C393.5 458.9 404.4 458.3 414.5 457C415.5 456.8 416.2 456 416.2 455.1Z" fill="url(#paint26_linear_252_655)"/>
<path d="M352.1 372.7V239C352.1 236.8 354.6 235.5 356.4 236.8L381 254.9C382 255.6 383.3 255.6 384.2 254.9L408.8 236.8C410.6 235.5 413.1 236.8 413.1 239V372.7" stroke="white" stroke-width="4" stroke-miterlimit="10" stroke-linecap="round" stroke-linejoin="round"/>
<path d="M383.799 399.4C477.191 399.4 552.899 323.691 552.899 230.3C552.899 136.909 477.191 61.2 383.799 61.2C290.408 61.2 214.699 136.909 214.699 230.3C214.699 323.691 290.408 399.4 383.799 399.4Z" fill="url(#paint27_linear_252_655)"/>
<path d="M191.899 491C182.099 504.7 201.899 521.5 215.999 503.1C227.999 487.4 254.199 443.3 256.799 441.7C259.399 440 273.199 439.9 275.799 440C277.999 440.1 279.099 436.6 275.299 436.3C271.499 436 264.999 435.4 264.999 435.4C264.999 435.4 274.999 434.7 278.899 434.7C282.799 434.7 282.399 431 278.899 430.5C275.299 430.1 265.299 430.3 265.299 430.3C265.299 430.3 279.699 428.8 282.199 428.4C285.199 428 285.899 423.8 281.599 423.8C277.699 423.9 265.499 425.6 265.499 425.6C265.499 425.6 273.599 423.4 276.599 422.4C280.199 421.2 279.699 417.4 274.899 418.7C270.799 419.8 255.799 423 255.799 423C255.799 423 255.599 417.6 255.399 415.1C255.199 412.6 250.899 411.8 250.499 417.1C250.399 418.4 248.699 427.2 242.999 434.1C225.799 454.9 197.399 483.5 191.899 491Z" fill="url(#paint28_linear_252_655)"/>
<path d="M372.4 775.3H261.1L242 756.1H372.4V775.3Z" fill="url(#paint29_linear_252_655)"/>
<path d="M428.3 805.7H317L297.9 786.6H428.3V805.7Z" fill="url(#paint30_linear_252_655)"/>
<path d="M255.8 675.9L246.2 736.7L223.1 735L223.5 673.9L255.8 675.9Z" fill="url(#paint31_linear_252_655)"/>
<path d="M243.699 728.9C246.699 727.8 250.499 728.5 250.199 735.5C249.899 742 248.099 744.3 254.299 751.7C260.799 759.6 266.999 765.7 267.099 770C267.199 774.3 262.299 777.4 254.699 773.8C247.099 770.2 228.999 758 221.699 752.1C213.999 745.9 217.899 738.6 219.799 734.1C221.699 729.7 223.299 727.5 223.299 727.5C223.299 727.5 222.799 733 229.699 734.2C236.499 735.4 237.399 731.2 243.699 728.9Z" fill="url(#paint32_linear_252_655)"/>
<path d="M217.1 741.9C217.8 744 219.1 746 221.6 748C229.5 754.4 249.1 767.6 257.4 771.5C260.9 773.1 263.8 773.5 266.1 773C264.4 775.4 260.3 776.4 254.6 773.8C247 770.2 228.9 758 221.6 752.1C217.6 748.8 216.7 745.2 217.1 741.9Z" fill="url(#paint33_linear_252_655)"/>
<path d="M174.5 519C174.5 519 201.2 531.9 232.2 545.4C252 554 278.2 574.5 269.8 614.3C261.4 654.2 253.1 695.3 253.1 695.3C236.5 699.9 221.9 691.8 221.9 691.8C221.9 691.8 215.4 625.7 217.2 606.3C219 586.9 213.6 588.1 210.7 584.6C207.8 581.1 143.6 548.3 143.6 548.3L174.5 519Z" fill="url(#paint34_linear_252_655)"/>
<path d="M282.4 715.6L297.9 775.2L276.2 782.8L252 726.7L282.4 715.6Z" fill="url(#paint35_linear_252_655)"/>
<path d="M187.399 556C187.399 556 200.999 561 218.999 569.5C235.899 577.5 251.799 587.5 260.499 613.2C269.199 638.9 287.099 726.3 287.099 726.3C272.899 740.4 254.999 737.5 254.999 737.5C254.999 737.5 243.999 715 228.099 683C213.499 653.7 211.499 628.6 205.299 620.4C199.099 612.2 135.499 611.7 116.999 588.4C101.299 568.6 105.299 539.1 108.799 531.4L163.199 503.8C163.199 503.8 175.999 519.7 194.699 528.4C206.399 533.9 187.399 556 187.399 556Z" fill="url(#paint36_linear_252_655)"/>
<path d="M292.499 769C294.799 766.8 298.599 765.9 301.099 772.4C303.399 778.5 302.699 781.2 311.399 785.6C320.499 790.2 328.699 793.3 330.399 797.3C332.099 801.3 328.999 806 320.599 805.8C312.199 805.6 290.699 801.6 281.699 799.2C272.199 796.6 272.799 788.3 272.699 783.5C272.599 778.7 273.299 776.1 273.299 776.1C273.299 776.1 275.099 781.3 281.899 779.7C288.599 777.9 287.799 773.7 292.499 769Z" fill="url(#paint37_linear_252_655)"/>
<path d="M272.799 788.2C273.899 791.5 276.299 794.5 281.499 795.9C291.199 798.5 314.199 802.8 323.199 803C326.199 803.1 328.499 802.6 330.299 801.7C328.999 804 325.799 805.8 320.599 805.7C312.199 805.5 290.699 801.5 281.699 799.1C274.899 797.3 273.199 792.6 272.799 788.2Z" fill="url(#paint38_linear_252_655)"/>
<path d="M211 492.7C205 484.2 188.9 452.5 173 433.6C157.1 414.7 133.9 431.5 150.8 453.7C167.8 475.9 181 497.2 191.1 508.1C202 520 220.3 506 211 492.7Z" fill="url(#paint39_linear_252_655)"/>
<path d="M104.899 551C104.899 551 109.299 517.1 103.199 484C99.6994 465.3 81.0994 449.1 92.4994 433.5C96.9994 427.3 132.299 410.9 158.099 423C169.199 428.2 169.599 431.4 174.899 442.4C180.799 454.8 182.299 463.6 179.799 471.7C169.299 507.3 189.299 525.6 189.299 525.6C189.299 525.6 172.999 555.5 104.899 551Z" fill="url(#paint40_linear_252_655)"/>
<path d="M178.499 476.7C175.699 489 176.499 499 178.699 506.7C146.599 510.1 118.699 484.8 118.699 484.8C150.899 492 172.299 485.1 178.499 476.7Z" fill="url(#paint41_linear_252_655)"/>
<path d="M124.3 398.1C124.3 398.1 125.4 418.2 113.4 422.5C113.4 422.5 119 424.6 127.3 429C148.5 440.2 163.1 460.4 163.1 460.4C163.1 460.4 165.7 434.5 153 421.4C144.3 412.4 146.4 401.8 146.4 401.8L124.3 398.1Z" fill="url(#paint42_linear_252_655)"/>
<path d="M157.699 428.1C156.399 425.7 154.899 423.4 152.999 421.4C144.299 412.4 146.399 401.8 146.399 401.8L124.299 398.1C124.299 398.1 131.099 401.3 130.699 404.9C135.899 416.9 139.299 429.7 157.699 428.1Z" fill="url(#paint43_linear_252_655)"/>
<path d="M268.2 552.8C268.2 553.4 267.3 553.9 265.7 554.3L191.3 570.6C188 571.3 182.7 571.1 179.5 570.1L139.1 557.3C137.5 556.8 136.7 556.2 136.7 555.6L136.6 557.6C136.6 558.2 137.4 558.8 139 559.3L179.4 572.1C182.6 573.1 187.9 573.4 191.2 572.6L265.6 556.3C267.3 555.9 268.1 555.4 268.1 554.8L268.2 552.8Z" fill="url(#paint44_linear_252_655)"/>
<path d="M268.199 552.8C268.199 552.2 267.399 551.6 265.799 551.1L225.399 538.3C222.199 537.3 216.899 537 213.599 537.8L139.199 554C137.499 554.4 136.699 554.9 136.699 555.5C136.699 556.1 137.499 556.7 139.099 557.2L179.499 570C182.699 571 187.999 571.3 191.299 570.5L265.699 554.2C267.399 553.9 268.199 553.4 268.199 552.8Z" fill="url(#paint45_linear_252_655)"/>
<path d="M167.4 561.9C167.4 562.1 167.6 562.3 168.1 562.4L182.3 566.9C183.3 567.2 185 567.3 186 567.1L255.9 551.8C256.4 551.7 256.7 551.5 256.7 551.3C256.7 551.1 256.5 550.9 256 550.8L241.8 546.3C240.8 546 239.1 545.9 238.1 546.1L168.2 561.4C167.7 561.5 167.4 561.7 167.4 561.9Z" fill="url(#paint46_linear_252_655)"/>
<path d="M171.9 549.9C171.9 550 172.1 550.2 172.5 550.3L183 553.6C183.8 553.9 185.1 553.9 186 553.7L215 547.3C215.4 547.2 215.6 547.1 215.6 546.9C215.6 546.8 215.4 546.6 215 546.5L204.5 543.2C203.7 542.9 202.4 542.9 201.5 543.1L172.5 549.5C172.1 549.6 171.9 549.8 171.9 549.9Z" fill="url(#paint47_linear_252_655)"/>
<path d="M271.399 484.5C270.699 484.3 269.999 484.3 269.199 484.4L194.799 500.7C191.499 501.4 188.699 505.6 188.499 510.1L185.899 565.9C185.699 569.3 187.199 571.9 189.299 572.6C189.999 572.8 190.699 572.8 191.499 572.7L265.899 556.4C269.199 555.7 271.999 551.5 272.199 547L274.799 491.2C274.999 487.8 273.599 485.2 271.399 484.5Z" fill="url(#paint48_linear_252_655)"/>
<path d="M237.099 520.4C236.399 520.2 235.599 520.1 234.799 520.3C231.299 521.1 228.299 525.5 228.099 530.1C227.899 533.7 229.499 536.4 231.699 537.1C232.399 537.3 233.199 537.4 233.999 537.2C237.499 536.4 240.499 532 240.699 527.4C240.899 523.8 239.399 521.1 237.099 520.4Z" fill="url(#paint49_linear_252_655)"/>
<path d="M121.098 395.4C120.698 390.3 120.998 371 134.098 363.9C147.198 356.8 166.198 365.1 168.898 374.6C171.598 384.1 166.298 392.6 166.298 396.3C166.298 399.9 164.998 405.9 163.198 410.1C160.098 417.3 155.798 422.8 150.398 423.1C144.498 423.4 122.198 410.9 121.098 395.4Z" fill="url(#paint50_linear_252_655)"/>
<path d="M168.299 374.4C168.299 374.4 171.099 379.6 168.099 388C165.199 396.5 165.499 398.9 165.099 402.2C163.999 413.4 155.099 421.3 155.099 421.3C155.099 421.3 164.199 428.3 171.799 420.6C183.299 409.1 170.999 377.2 170.999 377.2C170.999 377.2 173.499 364.2 162.099 356.7C150.099 348.9 124.199 349.6 116.999 365.8C109.799 382 109.799 397.3 98.2988 411.2C104.899 418.8 114.799 426.6 125.099 424.4C139.099 421.4 133.399 402.9 133.099 398.6C131.899 384.1 144.799 383.1 158.299 382.3C166.399 381.9 168.299 374.4 168.299 374.4Z" fill="url(#paint51_linear_252_655)"/>
<path d="M158.499 398.4C158.499 398.4 159.499 406.4 159.599 407.8C159.699 409.2 157.999 411.4 155.199 409.8" stroke="#2E405C" stroke-miterlimit="10" stroke-linecap="round"/>
<path d="M148.998 399.5C150.103 399.5 150.998 398.605 150.998 397.5C150.998 396.395 150.103 395.5 148.998 395.5C147.893 395.5 146.998 396.395 146.998 397.5C146.998 398.605 147.893 399.5 148.998 399.5Z" fill="#2E405C"/>
<path d="M163.098 399.7C164.202 399.7 165.098 398.805 165.098 397.7C165.098 396.595 164.202 395.7 163.098 395.7C161.993 395.7 161.098 396.595 161.098 397.7C161.098 398.805 161.993 399.7 163.098 399.7Z" fill="#2E405C"/>
<path d="M151.798 390.8C151.798 390.8 148.798 388 144.898 390.8" stroke="#2E405C" stroke-miterlimit="10" stroke-linecap="round"/>
<path d="M167.199 391.2C167.199 391.2 164.199 388.4 160.299 391.2" stroke="#2E405C" stroke-miterlimit="10" stroke-linecap="round"/>
<path d="M150.599 413.3C150.599 413.3 144.799 413.1 144.999 407.1" stroke="#2E405C" stroke-miterlimit="10" stroke-linecap="round"/>
<path d="M90.2992 518.8C93.5992 508.9 109.299 477.1 114.999 453C120.699 429 93.2992 420.4 85.5992 447.3C77.8992 474.2 68.3992 499.6 65.5992 514.2C62.5992 530 85.1992 534.2 90.2992 518.8Z" fill="url(#paint52_linear_252_655)"/>
<path d="M138.699 530C138.699 530 98.3993 508 83.1993 503.1C65.5993 497.4 57.4994 523.5 75.2994 528.4C99.0994 534.9 143.699 544.2 147.099 545.4C150.499 546.6 151.999 549.4 154.999 550.1C157.999 550.8 159.399 552.4 159.399 552.4C159.399 552.4 162.299 560.1 163.299 560.7C164.399 561.4 166.099 561.3 164.999 558.2C163.899 555.1 162.699 551 162.699 551C162.699 551 166.899 558.6 167.999 560.8C168.599 562 171.999 561.5 170.699 558.5C169.399 555.6 166.799 549.8 166.799 549.8C166.799 549.8 172.499 558.2 174.199 560.7C175.799 563 180.599 561.9 177.799 557.6C175.599 554.2 170.999 547.2 170.999 547.2C170.999 547.2 178.699 554.5 181.199 556.1C183.799 557.7 185.499 555.7 182.599 552.5C179.699 549.2 169.899 538.9 166.899 536.3C164.199 533.9 138.699 530 138.699 530Z" fill="url(#paint53_linear_252_655)"/>
<path d="M626.7 417.2C626.7 417.2 619.8 430.2 613.2 441.8C604.2 457.7 576.7 444.1 587.6 425C598.8 405.4 600.3 402.4 600.3 402.4L626.7 417.2Z" fill="url(#paint54_linear_252_655)"/>
<path d="M594.199 409.8C594.199 409.8 613.199 373.7 620.799 365.5C627.399 358.4 655.699 365.7 643.299 389.9C632.199 411.4 623.299 427 623.299 427C623.299 427 606.299 420.3 594.199 409.8Z" fill="url(#paint55_linear_252_655)"/>
<path d="M491.6 469.1C495.3 468.5 512.4 465 520.6 462.1C526.4 460 553.4 458.4 600.4 450.1C623.6 446 616 414.5 591.7 421.2C559.1 430.3 523 441.3 518.8 441C514.6 440.7 509.2 437.8 506.2 436.4C503.4 435.1 501 433.7 499.4 434.6C497.8 435.5 500.9 438.6 502.9 440.2C504.9 441.8 507.4 444 505 444.4C505 444.4 489.6 447 485.4 447.7C481.2 448.4 482.3 452.8 486.2 452.4C490.1 451.9 502.3 450.7 502.3 450.7C502.3 450.7 484.8 454.1 481.1 454.8C477.4 455.6 478.5 460.4 482.8 459.7C487.1 459 502.9 455.9 502.9 455.9C502.9 455.9 490.9 458.8 485.4 460.2C481.4 461.3 482.3 465.6 487 464.7C492.9 463.7 504.4 461.3 504.4 461.3C504.4 461.3 494.7 463.9 490.5 465.2C487.7 466.1 487.8 469.7 491.6 469.1Z" fill="url(#paint56_linear_252_655)"/>
<path d="M507.701 446.6C507.701 446.6 509.001 455.3 523.301 455.3" stroke="white" stroke-miterlimit="10" stroke-linecap="round" stroke-linejoin="round"/>
<path d="M511.8 708.2H613.8V738.6H492.1L511.8 708.2Z" fill="url(#paint57_linear_252_655)"/>
<path d="M618.001 743.7H720.001V774.2H598.301L618.001 743.7Z" fill="url(#paint58_linear_252_655)"/>
<path d="M550.7 679.1C550.7 679.1 545.4 699.8 544.9 707.7C544.5 713.5 544.8 719.5 542.4 721.9C540 724.3 521.3 732.1 503.9 737C486.5 741.9 475.9 734.9 479.6 727.5C483.3 720.2 512.8 706 516.1 696C519.4 686.1 521.5 671.4 521.5 671.4L550.7 679.1Z" fill="url(#paint59_linear_252_655)"/>
<path d="M695.2 480.2C695.2 480.2 688.1 521.1 644.8 534.9C601.5 548.8 587.8 550.2 587.8 550.2C587.8 550.2 586.4 585.7 572.8 619.6C559.2 653.5 549.4 685.7 549.4 685.7C549.4 685.7 534.1 689.5 519.1 679.6C519.1 679.6 538.8 565.8 541.7 548.9C544.6 532 549.5 520.8 560.5 514.9C571.6 508.9 648.4 474.4 648.4 474.4L695.2 480.2Z" fill="url(#paint60_linear_252_655)"/>
<path d="M479.501 727.4C480.501 733 490.201 737.1 504.501 733C521.901 728.1 540.601 720.3 543.001 717.9C543.601 717.3 544.001 716.4 544.401 715.4C544.101 718.2 543.601 720.5 542.401 721.8C540.001 724.2 521.301 732 503.901 736.9C486.401 741.9 475.801 734.8 479.501 727.4C479.501 727.4 479.501 727.5 479.501 727.4Z" fill="url(#paint61_linear_252_655)"/>
<path d="M652.801 706.8C652.801 706.8 650.501 728 651.101 735.9C651.501 741.7 652.701 747.6 650.701 750.3C648.701 753 631.201 763.4 614.701 770.7C598.201 778 586.601 772.5 589.301 764.7C591.901 756.9 619.201 738.7 621.001 728.4C622.801 718.1 622.801 703.3 622.801 703.3L652.801 706.8Z" fill="url(#paint62_linear_252_655)"/>
<path d="M717.201 480.5L670.201 475C670.201 475 631.701 535.9 625.601 547.7C619.501 559.5 618.401 573.8 619.901 588.4C621.401 603.1 621.901 714.1 621.901 714.1C640.701 723.2 652.301 715.7 652.301 715.7C668.201 628.2 668.001 573.5 668.001 573.5C668.001 573.5 699.401 544.2 711.201 526.7C726.601 503.7 717.201 480.5 717.201 480.5Z" fill="url(#paint63_linear_252_655)"/>
<path d="M589.201 764.7C591.001 770.1 601.201 772.8 614.701 766.8C631.201 759.5 648.701 749.1 650.701 746.4C651.201 745.7 651.501 744.8 651.701 743.8C651.801 746.6 651.701 749 650.601 750.4C648.601 753.1 631.101 763.5 614.601 770.8C598.101 778.1 586.501 772.6 589.201 764.7C589.201 764.7 589.201 764.8 589.201 764.7Z" fill="url(#paint64_linear_252_655)"/>
<path d="M722.001 502.4C722.001 502.4 719.901 481.1 717.101 462.1C713.701 439.5 712.901 425.6 710.101 391.1C708.101 366.1 637.101 351.2 622.801 363.7C610.001 374.9 635.901 442.7 632.201 477C631.101 486.8 649.101 500.3 670.801 503.5C717.301 510.3 722.001 502.4 722.001 502.4Z" fill="url(#paint65_linear_252_655)"/>
<path d="M644.602 355.9C656.702 356.5 671.502 360.9 684.202 369.1C681.602 373.8 673.402 383.7 657.902 386.6C636.502 390.5 625.802 379 644.602 355.9Z" fill="url(#paint66_linear_252_655)"/>
<path d="M681.701 367.4C681.701 367.4 670.701 360.5 671.501 346.6L652.101 341.6C652.101 341.6 650.601 351.7 647.401 355.5C644.201 359.3 630.601 375.9 642.701 381C657.101 386.9 676.301 376.2 681.701 367.4Z" fill="url(#paint67_linear_252_655)"/>
<path d="M637.901 374.5C637.601 369.7 641.101 363.7 644.101 359.6L668.001 351C668.001 351 663.501 375 647.001 376.7C642.901 377.1 640.001 376 637.901 374.5Z" fill="url(#paint68_linear_252_655)"/>
<path d="M556.5 514.4C556.5 515 557.4 515.5 559 515.9L633.4 532.2C636.7 532.9 642 532.7 645.2 531.7L685.6 518.9C687.2 518.4 688 517.8 688 517.2L688.1 519.2C688.1 519.8 687.3 520.4 685.7 520.9L645.3 533.7C642.1 534.7 636.8 535 633.5 534.2L559.1 517.9C557.4 517.5 556.6 517 556.6 516.4L556.5 514.4Z" fill="url(#paint69_linear_252_655)"/>
<path d="M556.5 514.4C556.5 513.8 557.3 513.2 558.9 512.7L599.3 499.9C602.5 498.9 607.8 498.6 611.1 499.4L685.5 515.7C687.2 516.1 688 516.6 688 517.2C688 517.8 687.2 518.4 685.6 518.9L645.2 531.7C642 532.7 636.7 533 633.4 532.2L559 515.9C557.4 515.5 556.6 515 556.5 514.4Z" fill="url(#paint70_linear_252_655)"/>
<path d="M657.3 523.5C657.3 523.7 657.1 523.9 656.6 524L642.4 528.5C641.4 528.8 639.7 528.9 638.7 528.7L568.8 513.4C568.3 513.3 568 513.1 568 512.9C568 512.7 568.2 512.5 568.7 512.4L582.9 507.9C583.9 507.6 585.6 507.5 586.6 507.7L656.5 523C657.1 523.2 657.3 523.3 657.3 523.5Z" fill="url(#paint71_linear_252_655)"/>
<path d="M652.8 511.5C652.8 511.6 652.6 511.8 652.2 511.9L641.7 515.2C640.9 515.5 639.6 515.5 638.7 515.3L609.7 508.9C609.3 508.8 609.1 508.7 609.1 508.5C609.1 508.4 609.3 508.2 609.7 508.1L620.2 504.8C621 504.5 622.3 504.5 623.2 504.7L652.2 511.1C652.6 511.3 652.8 511.4 652.8 511.5Z" fill="url(#paint72_linear_252_655)"/>
<path d="M553.301 446.2C554.001 446 554.701 446 555.501 446.1L629.901 462.4C633.201 463.1 636.001 467.3 636.201 471.8L638.801 527.6C639.001 531 637.501 533.6 635.401 534.3C634.701 534.5 634.001 534.5 633.201 534.4L558.801 518C555.501 517.3 552.701 513.1 552.501 508.6L549.901 452.8C549.701 449.4 551.201 446.9 553.301 446.2Z" fill="url(#paint73_linear_252_655)"/>
<path d="M587.601 482C588.301 481.8 589.101 481.7 589.901 481.9C593.401 482.7 596.401 487.1 596.601 491.7C596.801 495.3 595.201 498 593.001 498.7C592.301 498.9 591.501 499 590.701 498.8C587.201 498 584.201 493.6 584.001 489C583.801 485.4 585.401 482.7 587.601 482Z" fill="url(#paint74_linear_252_655)"/>
<path d="M674.201 345.2C681.801 338.2 679.301 332.1 675.001 329.5C675.001 321.6 673.401 316.6 665.801 310.8C653.501 301.5 632.701 307.1 628.401 316.4C624.101 325.7 628.301 335.3 627.701 339C627.201 342.7 627.601 349 628.801 353.7C630.801 361.6 634.401 367.9 639.901 369C645.801 370.3 670.601 360.9 674.201 345.2Z" fill="url(#paint75_linear_252_655)"/>
<path d="M657.501 322.7C655.201 326.6 656.501 333.9 661.301 336.2C666.101 338.6 666.201 339.5 666.201 339.5C666.201 339.5 666.301 329.4 673.101 331.1C676.101 331.8 680.301 337.6 671.001 344.9C670.501 348.7 671.401 351.6 671.401 351.6C671.401 351.6 683.001 342.1 683.501 328.9C684.001 315.6 675.601 313.9 675.601 313.9C675.601 313.9 674.701 300.5 658.601 297.5C642.401 294.5 628.401 300.5 624.601 307.7C619.301 317.6 626.501 327 626.501 327C626.501 327 626.101 315.9 633.701 319.5C641.201 323.1 650.301 326.6 657.501 322.7Z" fill="url(#paint76_linear_252_655)"/>
<path d="M636.202 340.8C636.202 340.8 634.502 349.2 634.302 350.7C634.102 352.2 635.702 354.6 638.802 353.2" stroke="#2E405C" stroke-miterlimit="10" stroke-linecap="round"/>
<path d="M646.302 342.8C647.517 342.8 648.502 341.815 648.502 340.6C648.502 339.385 647.517 338.4 646.302 338.4C645.087 338.4 644.102 339.385 644.102 340.6C644.102 341.815 645.087 342.8 646.302 342.8Z" fill="#2E405C"/>
<path d="M631.302 341.9C632.517 341.9 633.502 340.915 633.502 339.7C633.502 338.485 632.517 337.5 631.302 337.5C630.087 337.5 629.102 338.485 629.102 339.7C629.102 340.915 630.087 341.9 631.302 341.9Z" fill="#2E405C"/>
<path d="M643.803 333.3C643.803 333.3 647.203 330.6 651.103 333.9" stroke="#2E405C" stroke-miterlimit="10" stroke-linecap="round"/>
<path d="M627.502 332.4C627.502 332.4 630.902 329.7 634.802 333" stroke="#2E405C" stroke-miterlimit="10" stroke-linecap="round"/>
<path d="M643.803 358.3C643.803 358.3 649.403 357.4 649.703 351.1" stroke="#2E405C" stroke-miterlimit="10" stroke-linecap="round"/>
<path d="M634.4 538.5C637.3 536.1 650.5 524.7 656.2 518.2C660.3 513.5 683 498.9 719.9 468.6C738.1 453.6 716.1 429.9 698.2 447.7C674.2 471.6 648.2 498.9 644.3 500.7C640.4 502.5 634.4 502.6 631.1 502.9C628 503.1 625.3 503.1 624.3 504.7C623.4 506.2 627.6 507.4 630 507.8C632.5 508.2 635.8 508.9 633.9 510.4L625.8 516.9C625.8 516.9 621 516 618.3 515.9C616.1 515.8 614.7 518.4 618.4 519.8C620.3 520.5 626.1 523.1 628.9 521.1C632 518.9 634.6 517 634.6 517L625.7 524.5C625.7 524.5 619.4 525.3 617.4 525.4C613.6 525.7 613.1 529 617.5 529.4C619.1 529.6 627 530 628.5 528.7C630 527.4 637.7 521.3 637.7 521.3L630.1 529C630.1 529 625.5 531 622.6 531.6C619.6 532.3 621 536.3 624.2 535.7C626.4 535.3 631.5 534.2 633.6 532.4C635.5 530.8 641.8 525.2 641.8 525.2C641.8 525.2 634.6 532.2 631.6 535.5C629.6 537.8 631.5 540.9 634.4 538.5Z" fill="url(#paint77_linear_252_655)"/>
<path d="M719.3 424.5C719.3 424.5 723.2 438.7 726.4 451.7C730.8 469.5 701.5 478.5 696.3 457.1C691 435.2 690 431.9 690 431.9L719.3 424.5Z" fill="url(#paint78_linear_252_655)"/>
<path d="M689.5 441.2C689.5 441.2 681.9 408 679.4 397.1C675.6 380 703.9 366.9 711.4 392.9C718.2 416.1 722.4 433.6 722.4 433.6C722.4 433.6 705.4 440.5 689.5 441.2Z" fill="url(#paint79_linear_252_655)"/>
<defs>
<linearGradient id="paint0_linear_252_655" x1="-5.74796e-08" y1="665.567" x2="775.689" y2="665.567" gradientUnits="userSpaceOnUse">
<stop stop-color="#ECF0F8"/>
<stop offset="1" stop-color="#AEBDDF"/>
</linearGradient>
<linearGradient id="paint1_linear_252_655" x1="387.747" y1="596.238" x2="387.747" y2="979.563" gradientUnits="userSpaceOnUse">
<stop stop-color="white"/>
<stop offset="1" stop-color="#AEBDDF"/>
</linearGradient>
<linearGradient id="paint2_linear_252_655" x1="561.366" y1="644.718" x2="190.682" y2="644.718" gradientUnits="userSpaceOnUse">
<stop stop-color="white"/>
<stop offset="1" stop-color="#AEBDDF"/>
</linearGradient>
<linearGradient id="paint3_linear_252_655" x1="219.873" y1="368.04" x2="219.873" y2="702.839" gradientUnits="userSpaceOnUse">
<stop stop-color="#ACBDDE"/>
<stop offset="1" stop-color="#2E405C"/>
</linearGradient>
<linearGradient id="paint4_linear_252_655" x1="355.831" y1="599.71" x2="-31.5526" y2="599.71" gradientUnits="userSpaceOnUse">
<stop stop-color="#ACBDDE"/>
<stop offset="1" stop-color="#2E405C"/>
</linearGradient>
<linearGradient id="paint5_linear_252_655" x1="593.192" y1="566.153" x2="87.6176" y2="566.153" gradientUnits="userSpaceOnUse">
<stop stop-color="#ACBDDE"/>
<stop offset="1" stop-color="#2E405C"/>
</linearGradient>
<linearGradient id="paint6_linear_252_655" x1="7.80119" y1="501.941" x2="745.153" y2="501.941" gradientUnits="userSpaceOnUse">
<stop stop-color="#ACBDDE"/>
<stop offset="1" stop-color="#2E405C"/>
</linearGradient>
<linearGradient id="paint7_linear_252_655" x1="229.479" y1="566.153" x2="655.475" y2="566.153" gradientUnits="userSpaceOnUse">
<stop stop-color="white"/>
<stop offset="1" stop-color="#AEBDDF"/>
</linearGradient>
<linearGradient id="paint8_linear_252_655" x1="681.054" y1="483.543" x2="681.054" y2="696.626" gradientUnits="userSpaceOnUse">
<stop stop-color="white"/>
<stop offset="1" stop-color="#AEBDDF"/>
</linearGradient>
<linearGradient id="paint9_linear_252_655" x1="555.817" y1="419.196" x2="555.817" y2="670.494" gradientUnits="userSpaceOnUse">
<stop stop-color="white"/>
<stop offset="1" stop-color="#AEBDDF"/>
</linearGradient>
<linearGradient id="paint10_linear_252_655" x1="524.723" y1="697.479" x2="-121.423" y2="697.479" gradientUnits="userSpaceOnUse">
<stop stop-color="white"/>
<stop offset="1" stop-color="#AEBDDF"/>
</linearGradient>
<linearGradient id="paint11_linear_252_655" x1="409.54" y1="644.718" x2="-36.7223" y2="644.718" gradientUnits="userSpaceOnUse">
<stop stop-color="white"/>
<stop offset="1" stop-color="#AEBDDF"/>
</linearGradient>
<linearGradient id="paint12_linear_252_655" x1="365.323" y1="591.957" x2="-272.668" y2="591.957" gradientUnits="userSpaceOnUse">
<stop stop-color="white"/>
<stop offset="1" stop-color="#AEBDDF"/>
</linearGradient>
<linearGradient id="paint13_linear_252_655" x1="153.527" y1="230.279" x2="614.085" y2="230.279" gradientUnits="userSpaceOnUse">
<stop stop-color="#8CCFFF"/>
<stop offset="1" stop-color="#038FF4"/>
</linearGradient>
<linearGradient id="paint14_linear_252_655" x1="163.142" y1="135.864" x2="163.142" y2="190.995" gradientUnits="userSpaceOnUse">
<stop stop-color="#038FF4"/>
<stop offset="1" stop-color="#038FF4"/>
</linearGradient>
<linearGradient id="paint15_linear_252_655" x1="549.888" y1="359.385" x2="549.888" y2="414.516" gradientUnits="userSpaceOnUse">
<stop stop-color="#038FF4"/>
<stop offset="1" stop-color="#0094FF"/>
</linearGradient>
<linearGradient id="paint16_linear_252_655" x1="546.557" y1="42.2234" x2="546.557" y2="97.3543" gradientUnits="userSpaceOnUse">
<stop stop-color="#038FF4"/>
<stop offset="1" stop-color="#0897FF"/>
</linearGradient>
<linearGradient id="paint17_linear_252_655" x1="387.844" y1="623.613" x2="387.844" y2="503.997" gradientUnits="userSpaceOnUse">
<stop stop-color="#79D985"/>
<stop offset="1" stop-color="#027A71"/>
</linearGradient>
<linearGradient id="paint18_linear_252_655" x1="387.844" y1="601.439" x2="387.844" y2="326.383" gradientUnits="userSpaceOnUse">
<stop stop-color="#79D985"/>
<stop offset="1" stop-color="#027A71"/>
</linearGradient>
<linearGradient id="paint19_linear_252_655" x1="382.648" y1="678.918" x2="382.648" y2="414.201" gradientUnits="userSpaceOnUse">
<stop stop-color="#79D985"/>
<stop offset="1" stop-color="#027A71"/>
</linearGradient>
<linearGradient id="paint20_linear_252_655" x1="290.322" y1="466.181" x2="455.454" y2="466.181" gradientUnits="userSpaceOnUse">
<stop stop-color="#ACBDDE"/>
<stop offset="1" stop-color="#2E405C"/>
</linearGradient>
<linearGradient id="paint21_linear_252_655" x1="320.844" y1="425.796" x2="536.629" y2="425.796" gradientUnits="userSpaceOnUse">
<stop stop-color="#ACBDDE"/>
<stop offset="1" stop-color="#2E405C"/>
</linearGradient>
<linearGradient id="paint22_linear_252_655" x1="312.235" y1="430.661" x2="620.703" y2="430.661" gradientUnits="userSpaceOnUse">
<stop stop-color="white"/>
<stop offset="1" stop-color="#AEBDDF"/>
</linearGradient>
<linearGradient id="paint23_linear_252_655" x1="312.235" y1="411.935" x2="620.703" y2="411.935" gradientUnits="userSpaceOnUse">
<stop stop-color="white"/>
<stop offset="1" stop-color="#AEBDDF"/>
</linearGradient>
<linearGradient id="paint24_linear_252_655" x1="455.142" y1="372.384" x2="168.803" y2="372.384" gradientUnits="userSpaceOnUse">
<stop stop-color="#ACBDDE"/>
<stop offset="1" stop-color="#2E405C"/>
</linearGradient>
<linearGradient id="paint25_linear_252_655" x1="382.649" y1="44.4193" x2="382.649" y2="432.575" gradientUnits="userSpaceOnUse">
<stop stop-color="#038FF4"/>
<stop offset="1" stop-color="#038FF4"/>
</linearGradient>
<linearGradient id="paint26_linear_252_655" x1="312.235" y1="449.386" x2="620.703" y2="449.386" gradientUnits="userSpaceOnUse">
<stop stop-color="white"/>
<stop offset="1" stop-color="#AEBDDF"/>
</linearGradient>
<linearGradient id="paint27_linear_252_655" x1="383.805" y1="78.8756" x2="383.805" y2="730.975" gradientUnits="userSpaceOnUse">
<stop stop-color="#C4E6FF" stop-opacity="0.52"/>
<stop offset="1" stop-color="#038FF4"/>
</linearGradient>
<linearGradient id="paint28_linear_252_655" x1="219.029" y1="342.48" x2="255.986" y2="591.679" gradientUnits="userSpaceOnUse">
<stop stop-color="#FFD2BB"/>
<stop offset="1" stop-color="#FF6B5A"/>
</linearGradient>
<linearGradient id="paint29_linear_252_655" x1="361.297" y1="765.726" x2="254.451" y2="765.726" gradientUnits="userSpaceOnUse">
<stop offset="0.00558659" stop-color="white" stop-opacity="0"/>
<stop offset="1" stop-color="#AEBDDF"/>
</linearGradient>
<linearGradient id="paint30_linear_252_655" x1="410.881" y1="796.15" x2="274.052" y2="796.15" gradientUnits="userSpaceOnUse">
<stop stop-color="white" stop-opacity="0"/>
<stop offset="1" stop-color="#AEBDDF"/>
</linearGradient>
<linearGradient id="paint31_linear_252_655" x1="235.466" y1="760.507" x2="240.038" y2="666.354" gradientUnits="userSpaceOnUse">
<stop stop-color="#FFD2BB"/>
<stop offset="1" stop-color="#FF6B5A"/>
</linearGradient>
<linearGradient id="paint32_linear_252_655" x1="242.041" y1="774.34" x2="242.041" y2="697.456" gradientUnits="userSpaceOnUse">
<stop stop-color="white"/>
<stop offset="1" stop-color="#AEBDDF"/>
</linearGradient>
<linearGradient id="paint33_linear_252_655" x1="219.733" y1="749.151" x2="293.243" y2="788.61" gradientUnits="userSpaceOnUse">
<stop stop-color="#ACBDDE"/>
<stop offset="1" stop-color="#2E405C"/>
</linearGradient>
<linearGradient id="paint34_linear_252_655" x1="207.496" y1="817.618" x2="207.496" y2="571.379" gradientUnits="userSpaceOnUse">
<stop stop-color="#ACBDDE"/>
<stop offset="1" stop-color="#2E405C"/>
</linearGradient>
<linearGradient id="paint35_linear_252_655" x1="292.089" y1="789.354" x2="250.858" y2="676.398" gradientUnits="userSpaceOnUse">
<stop stop-color="#FFD2BB"/>
<stop offset="1" stop-color="#FF6B5A"/>
</linearGradient>
<linearGradient id="paint36_linear_252_655" x1="196.323" y1="748.393" x2="196.323" y2="556.232" gradientUnits="userSpaceOnUse">
<stop stop-color="#ACBDDE"/>
<stop offset="1" stop-color="#2E405C"/>
</linearGradient>
<linearGradient id="paint37_linear_252_655" x1="301.771" y1="805.594" x2="301.771" y2="737.447" gradientUnits="userSpaceOnUse">
<stop stop-color="white"/>
<stop offset="1" stop-color="#AEBDDF"/>
</linearGradient>
<linearGradient id="paint38_linear_252_655" x1="261.424" y1="791.523" x2="370.523" y2="809.416" gradientUnits="userSpaceOnUse">
<stop stop-color="#ACBDDE"/>
<stop offset="1" stop-color="#2E405C"/>
</linearGradient>
<linearGradient id="paint39_linear_252_655" x1="179.219" y1="352.265" x2="179.219" y2="597.714" gradientUnits="userSpaceOnUse">
<stop stop-color="#FFD2BB"/>
<stop offset="1" stop-color="#FF6B5A"/>
</linearGradient>
<linearGradient id="paint40_linear_252_655" x1="143.561" y1="385.349" x2="129.614" y2="689.962" gradientUnits="userSpaceOnUse">
<stop stop-color="#038FF4"/>
<stop offset="0.5" stop-color="#36424A"/>
<stop offset="1" stop-color="#235071"/>
</linearGradient>
<linearGradient id="paint41_linear_252_655" x1="107.445" y1="529.888" x2="191.81" y2="459.966" gradientUnits="userSpaceOnUse">
<stop stop-color="#3B5C74"/>
<stop offset="1" stop-color="#044777"/>
</linearGradient>
<linearGradient id="paint42_linear_252_655" x1="138.337" y1="358.134" x2="138.337" y2="486.628" gradientUnits="userSpaceOnUse">
<stop stop-color="#FFD2BB"/>
<stop offset="1" stop-color="#FF6B5A"/>
</linearGradient>
<linearGradient id="paint43_linear_252_655" x1="140.998" y1="389.178" x2="140.998" y2="433.829" gradientUnits="userSpaceOnUse">
<stop stop-color="#FFD2BB"/>
<stop offset="1" stop-color="#FF6B5A"/>
</linearGradient>
<linearGradient id="paint44_linear_252_655" x1="203.796" y1="495.584" x2="201.53" y2="592.316" gradientUnits="userSpaceOnUse">
<stop stop-color="white"/>
<stop offset="1" stop-color="#AEBDDF"/>
</linearGradient>
<linearGradient id="paint45_linear_252_655" x1="147.605" y1="551.65" x2="218.624" y2="554.902" gradientUnits="userSpaceOnUse">
<stop stop-color="white"/>
<stop offset="1" stop-color="#AEBDDF"/>
</linearGradient>
<linearGradient id="paint46_linear_252_655" x1="161.887" y1="554.3" x2="301.049" y2="560.672" gradientUnits="userSpaceOnUse">
<stop stop-color="#ACBDDE"/>
<stop offset="1" stop-color="#2E405C"/>
</linearGradient>
<linearGradient id="paint47_linear_252_655" x1="159.927" y1="562.728" x2="294.342" y2="506.239" gradientUnits="userSpaceOnUse">
<stop stop-color="#ACBDDE"/>
<stop offset="1" stop-color="#2E405C"/>
</linearGradient>
<linearGradient id="paint48_linear_252_655" x1="230.411" y1="445.004" x2="230.411" y2="635.991" gradientUnits="userSpaceOnUse">
<stop stop-color="white"/>
<stop offset="1" stop-color="#AEBDDF"/>
</linearGradient>
<linearGradient id="paint49_linear_252_655" x1="264.995" y1="456.746" x2="228.986" y2="541.72" gradientUnits="userSpaceOnUse">
<stop stop-color="white"/>
<stop offset="1" stop-color="#AEBDDF"/>
</linearGradient>
<linearGradient id="paint50_linear_252_655" x1="145.328" y1="358.134" x2="145.328" y2="486.628" gradientUnits="userSpaceOnUse">
<stop stop-color="#FFD2BB"/>
<stop offset="1" stop-color="#FF6B5A"/>
</linearGradient>
<linearGradient id="paint51_linear_252_655" x1="56.3675" y1="246.511" x2="145.874" y2="410.093" gradientUnits="userSpaceOnUse">
<stop stop-color="#ACBDDE"/>
<stop offset="1" stop-color="#2E405C"/>
</linearGradient>
<linearGradient id="paint52_linear_252_655" x1="90.5559" y1="352.265" x2="90.5559" y2="597.714" gradientUnits="userSpaceOnUse">
<stop stop-color="#FFD2BB"/>
<stop offset="1" stop-color="#FF6B5A"/>
</linearGradient>
<linearGradient id="paint53_linear_252_655" x1="124.882" y1="352.265" x2="124.882" y2="597.714" gradientUnits="userSpaceOnUse">
<stop stop-color="#FFD2BB"/>
<stop offset="1" stop-color="#FF6B5A"/>
</linearGradient>
<linearGradient id="paint54_linear_252_655" x1="605.865" y1="580.699" x2="605.865" y2="316.764" gradientUnits="userSpaceOnUse">
<stop stop-color="#FFD2BB"/>
<stop offset="1" stop-color="#FF6B5A"/>
</linearGradient>
<linearGradient id="paint55_linear_252_655" x1="620.298" y1="313.917" x2="620.298" y2="573.975" gradientUnits="userSpaceOnUse">
<stop stop-color="white"/>
<stop offset="1" stop-color="#AEBDDF"/>
</linearGradient>
<linearGradient id="paint56_linear_252_655" x1="546.558" y1="580.699" x2="546.558" y2="316.764" gradientUnits="userSpaceOnUse">
<stop stop-color="#FFD2BB"/>
<stop offset="1" stop-color="#FF6B5A"/>
</linearGradient>
<linearGradient id="paint57_linear_252_655" x1="601.018" y1="723.381" x2="523.799" y2="723.381" gradientUnits="userSpaceOnUse">
<stop stop-color="white" stop-opacity="0"/>
<stop offset="1" stop-color="#AEBDDF"/>
</linearGradient>
<linearGradient id="paint58_linear_252_655" x1="712.019" y1="758.947" x2="609.423" y2="758.947" gradientUnits="userSpaceOnUse">
<stop stop-color="white" stop-opacity="0"/>
<stop offset="1" stop-color="#AEBDDF"/>
</linearGradient>
<linearGradient id="paint59_linear_252_655" x1="543.627" y1="705.017" x2="421.938" y2="705.017" gradientUnits="userSpaceOnUse">
<stop stop-color="white"/>
<stop offset="1" stop-color="#AEBDDF"/>
</linearGradient>
<linearGradient id="paint60_linear_252_655" x1="596.317" y1="788.116" x2="613.56" y2="458.574" gradientUnits="userSpaceOnUse">
<stop stop-color="#ACBDDE"/>
<stop offset="1" stop-color="#2E405C"/>
</linearGradient>
<linearGradient id="paint61_linear_252_655" x1="528.425" y1="715.18" x2="436.456" y2="765.556" gradientUnits="userSpaceOnUse">
<stop stop-color="#ACBDDE"/>
<stop offset="1" stop-color="#2E405C"/>
</linearGradient>
<linearGradient id="paint62_linear_252_655" x1="645.367" y1="738.767" x2="532.709" y2="738.767" gradientUnits="userSpaceOnUse">
<stop stop-color="white"/>
<stop offset="1" stop-color="#AEBDDF"/>
</linearGradient>
<linearGradient id="paint63_linear_252_655" x1="661.961" y1="789.758" x2="672.045" y2="459.919" gradientUnits="userSpaceOnUse">
<stop stop-color="#ACBDDE"/>
<stop offset="1" stop-color="#2E405C"/>
</linearGradient>
<linearGradient id="paint64_linear_252_655" x1="650.342" y1="733.38" x2="570.654" y2="796.793" gradientUnits="userSpaceOnUse">
<stop stop-color="#ACBDDE"/>
<stop offset="1" stop-color="#2E405C"/>
</linearGradient>
<linearGradient id="paint65_linear_252_655" x1="670.652" y1="313.917" x2="670.652" y2="573.975" gradientUnits="userSpaceOnUse">
<stop stop-color="white"/>
<stop offset="1" stop-color="#AEBDDF"/>
</linearGradient>
<linearGradient id="paint66_linear_252_655" x1="658.598" y1="385.793" x2="661.44" y2="345.398" gradientUnits="userSpaceOnUse">
<stop stop-color="white"/>
<stop offset="1" stop-color="#AEBDDF"/>
</linearGradient>
<linearGradient id="paint67_linear_252_655" x1="656.067" y1="392.925" x2="670.422" y2="304.245" gradientUnits="userSpaceOnUse">
<stop stop-color="#FFD2BB"/>
<stop offset="1" stop-color="#FF6B5A"/>
</linearGradient>
<linearGradient id="paint68_linear_252_655" x1="643.393" y1="398.739" x2="654.563" y2="355.456" gradientUnits="userSpaceOnUse">
<stop stop-color="#FFD2BB"/>
<stop offset="1" stop-color="#FF6B5A"/>
</linearGradient>
<linearGradient id="paint69_linear_252_655" x1="620.933" y1="457.209" x2="623.199" y2="553.941" gradientUnits="userSpaceOnUse">
<stop stop-color="white"/>
<stop offset="1" stop-color="#AEBDDF"/>
</linearGradient>
<linearGradient id="paint70_linear_252_655" x1="677.124" y1="513.275" x2="606.105" y2="516.527" gradientUnits="userSpaceOnUse">
<stop stop-color="white"/>
<stop offset="1" stop-color="#AEBDDF"/>
</linearGradient>
<linearGradient id="paint71_linear_252_655" x1="662.843" y1="515.925" x2="523.68" y2="522.297" gradientUnits="userSpaceOnUse">
<stop stop-color="#ACBDDE"/>
<stop offset="1" stop-color="#2E405C"/>
</linearGradient>
<linearGradient id="paint72_linear_252_655" x1="664.803" y1="524.353" x2="530.388" y2="467.864" gradientUnits="userSpaceOnUse">
<stop stop-color="#ACBDDE"/>
<stop offset="1" stop-color="#2E405C"/>
</linearGradient>
<linearGradient id="paint73_linear_252_655" x1="594.341" y1="441.482" x2="594.341" y2="635.526" gradientUnits="userSpaceOnUse">
<stop stop-color="#ACBDDE"/>
<stop offset="1" stop-color="#2E405C"/>
</linearGradient>
<linearGradient id="paint74_linear_252_655" x1="590.294" y1="481.699" x2="590.294" y2="552.058" gradientUnits="userSpaceOnUse">
<stop stop-color="white"/>
<stop offset="1" stop-color="#AEBDDF"/>
</linearGradient>
<linearGradient id="paint75_linear_252_655" x1="649.991" y1="388.044" x2="654.324" y2="298.313" gradientUnits="userSpaceOnUse">
<stop stop-color="#FFD2BB"/>
<stop offset="1" stop-color="#FF6B5A"/>
</linearGradient>
<linearGradient id="paint76_linear_252_655" x1="653.758" y1="185.752" x2="653.052" y2="332.572" gradientUnits="userSpaceOnUse">
<stop stop-color="#ACBDDE"/>
<stop offset="1" stop-color="#2E405C"/>
</linearGradient>
<linearGradient id="paint77_linear_252_655" x1="670.65" y1="608.96" x2="670.65" y2="374.172" gradientUnits="userSpaceOnUse">
<stop stop-color="#FFD2BB"/>
<stop offset="1" stop-color="#FF6B5A"/>
</linearGradient>
<linearGradient id="paint78_linear_252_655" x1="708.424" y1="608.96" x2="708.424" y2="374.172" gradientUnits="userSpaceOnUse">
<stop stop-color="#FFD2BB"/>
<stop offset="1" stop-color="#FF6B5A"/>
</linearGradient>
<linearGradient id="paint79_linear_252_655" x1="700.753" y1="313.917" x2="700.753" y2="573.975" gradientUnits="userSpaceOnUse">
<stop stop-color="white"/>
<stop offset="1" stop-color="#AEBDDF"/>
</linearGradient>
</defs>
</svg>
