<svg width="3328" height="506" viewBox="0 0 3328 506" fill="none" xmlns="http://www.w3.org/2000/svg">
<path d="M2140.6 382.8C2141.13 384.133 2141.13 385.6 2140.6 387.2C2140.33 388.533 2139.67 389.733 2138.6 390.8C2137.53 391.6 2136.07 392 2134.2 392C2132.6 392 2131.27 391.6 2130.2 390.8C2129.13 390 2128.33 388.667 2127.8 386.8L2036.2 146.8H2040.2L1948.6 386.8C1947.27 390.267 1945 392 1941.8 392C1940.2 392 1938.73 391.6 1937.4 390.8C1936.33 389.733 1935.67 388.533 1935.4 387.2C1935.13 385.867 1935.27 384.4 1935.8 382.8L2031.8 133.2C2032.33 131.6 2033.13 130.533 2034.2 130C2035.27 129.2 2036.6 128.8 2038.2 128.8C2039.8 128.8 2041.13 129.2 2042.2 130C2043.27 130.533 2044.07 131.6 2044.6 133.2L2140.6 382.8ZM2103 311.2L2107 324H1965.4L1970.2 311.2H2103ZM2248.11 189.6C2271.57 189.6 2290.37 196 2304.51 208.8C2318.64 221.6 2325.71 239.867 2325.71 263.6V385.2C2325.71 387.067 2325.04 388.667 2323.71 390C2322.64 391.333 2321.04 392 2318.91 392C2316.77 392 2315.04 391.333 2313.71 390C2312.64 388.667 2312.11 387.067 2312.11 385.2V263.6C2312.11 244.4 2306.51 229.467 2295.31 218.8C2284.11 208.133 2267.97 202.8 2246.91 202.8C2230.91 202.8 2217.31 205.867 2206.11 212C2194.91 218.133 2186.51 226 2180.91 235.6C2175.31 244.933 2172.51 254.667 2172.51 264.8V385.2C2172.51 387.067 2171.84 388.667 2170.51 390C2169.44 391.333 2167.84 392 2165.71 392C2163.57 392 2161.84 391.333 2160.51 390C2159.44 388.667 2158.91 387.067 2158.91 385.2V198.8C2158.91 196.933 2159.44 195.333 2160.51 194C2161.84 192.667 2163.57 192 2165.71 192C2167.84 192 2169.44 192.667 2170.51 194C2171.84 195.333 2172.51 196.933 2172.51 198.8V228H2174.11C2179.71 217.067 2188.77 208 2201.31 200.8C2213.84 193.333 2229.44 189.6 2248.11 189.6ZM2444.38 394.4C2424.11 394.4 2406.51 389.867 2391.58 380.8C2376.64 371.733 2365.18 359.467 2357.18 344C2349.18 328.533 2345.18 311.333 2345.18 292.4C2345.18 272.933 2349.58 255.467 2358.38 240C2367.18 224.267 2379.31 212 2394.78 203.2C2410.51 194.133 2428.24 189.6 2447.98 189.6C2466.38 189.6 2482.64 193.067 2496.78 200C2511.18 206.667 2522.38 216.667 2530.38 230C2538.64 243.067 2542.78 258.8 2542.78 277.2V385.2C2542.78 387.067 2542.11 388.667 2540.78 390C2539.71 391.333 2538.11 392 2535.98 392C2533.84 392 2532.11 391.333 2530.78 390C2529.71 388.667 2529.18 387.067 2529.18 385.2V348.8H2527.58C2525.44 353.867 2521.04 360 2514.38 367.2C2507.98 374.133 2498.78 380.4 2486.78 386C2475.04 391.6 2460.91 394.4 2444.38 394.4ZM2359.18 292.4C2359.18 308.933 2362.38 324 2368.78 337.6C2375.44 350.933 2385.18 361.6 2397.98 369.6C2411.04 377.333 2426.51 381.2 2444.38 381.2C2462.24 381.2 2477.58 377.6 2490.38 370.4C2503.18 363.2 2512.78 353.467 2519.18 341.2C2525.84 328.933 2529.18 315.067 2529.18 299.6V277.2C2529.18 253.467 2521.71 235.2 2506.78 222.4C2492.11 209.333 2472.78 202.8 2448.78 202.8C2431.18 202.8 2415.58 206.667 2401.98 214.4C2388.38 222.133 2377.84 232.8 2370.38 246.4C2362.91 260 2359.18 275.333 2359.18 292.4ZM2581.35 111.2C2583.49 111.2 2585.09 111.867 2586.15 113.2C2587.49 114.533 2588.15 116.133 2588.15 118V385.2C2588.15 387.067 2587.49 388.667 2586.15 390C2585.09 391.333 2583.49 392 2581.35 392C2579.22 392 2577.49 391.333 2576.15 390C2575.09 388.667 2574.55 387.067 2574.55 385.2V118C2574.55 116.133 2575.09 114.533 2576.15 113.2C2577.49 111.867 2579.22 111.2 2581.35 111.2ZM2779.63 192C2781.76 192 2783.36 192.667 2784.43 194C2785.76 195.333 2786.43 196.933 2786.43 198.8V372C2786.43 396 2782.29 415.333 2774.03 430C2766.03 444.933 2755.23 455.6 2741.63 462C2728.03 468.4 2712.69 471.6 2695.63 471.6C2683.36 471.6 2671.23 470.267 2659.23 467.6C2647.23 464.933 2638.56 461.467 2633.23 457.2C2631.89 456.4 2630.96 455.467 2630.43 454.4C2630.16 453.6 2630.03 452.667 2630.03 451.6C2630.03 449.733 2630.69 448.133 2632.03 446.8C2633.36 445.467 2634.96 444.8 2636.83 444.8C2638.16 445.067 2639.36 445.333 2640.43 445.6L2642.03 446.4L2643.63 447.2C2649.49 450.133 2656.96 452.667 2666.03 454.8C2675.36 457.2 2685.23 458.4 2695.63 458.4C2718.83 458.4 2737.49 452 2751.63 439.2C2765.76 426.4 2772.83 404 2772.83 372V354.4H2771.23C2765.36 365.333 2756.29 374.4 2744.03 381.6C2731.76 388.533 2716.56 392 2698.43 392C2674.16 392 2654.96 385.6 2640.83 372.8C2626.69 360 2619.63 341.733 2619.63 318V198.8C2619.63 196.933 2620.16 195.333 2621.23 194C2622.56 192.667 2624.29 192 2626.43 192C2628.56 192 2630.16 192.667 2631.23 194C2632.56 195.333 2633.23 196.933 2633.23 198.8V318C2633.23 337.2 2638.83 352.133 2650.03 362.8C2661.23 373.467 2677.36 378.8 2698.43 378.8C2714.43 378.8 2728.03 375.867 2739.23 370C2750.43 363.867 2758.83 356.267 2764.43 347.2C2770.03 337.867 2772.83 328.4 2772.83 318.8V198.8C2772.83 196.933 2773.36 195.333 2774.43 194C2775.76 192.667 2777.49 192 2779.63 192ZM2833.5 237.2C2833.5 245.2 2835.9 251.867 2840.7 257.2C2845.5 262.533 2851.5 266.8 2858.7 270C2865.9 273.2 2875.36 276.667 2887.1 280.4C2901.23 285.2 2912.43 289.6 2920.7 293.6C2929.23 297.6 2936.43 303.333 2942.3 310.8C2948.16 318 2951.1 327.333 2951.1 338.8C2951.1 350.267 2948.03 360.267 2941.9 368.8C2935.76 377.067 2927.5 383.467 2917.1 388C2906.96 392.267 2895.5 394.4 2882.7 394.4C2864.83 394.4 2849.76 391.467 2837.5 385.6C2825.5 379.467 2816.16 372.133 2809.5 363.6C2808.7 362.533 2808.03 361.6 2807.5 360.8C2806.96 359.733 2806.7 358.667 2806.7 357.6C2806.7 355.733 2807.36 354.133 2808.7 352.8C2810.03 351.2 2811.63 350.4 2813.5 350.4C2815.63 350.4 2817.76 351.467 2819.9 353.6C2835.1 372 2855.76 381.2 2881.9 381.2C2898.43 381.2 2911.76 377.6 2921.9 370.4C2932.03 363.2 2937.1 353.067 2937.1 340C2937.1 330.667 2934.43 323.067 2929.1 317.2C2924.03 311.067 2917.76 306.4 2910.3 303.2C2903.1 299.733 2892.96 295.867 2879.9 291.6C2866.56 287.333 2855.9 283.467 2847.9 280C2839.9 276.267 2833.1 271.2 2827.5 264.8C2822.16 258.133 2819.5 249.6 2819.5 239.2C2819.5 229.333 2822.03 220.667 2827.1 213.2C2832.43 205.467 2839.76 199.6 2849.1 195.6C2858.43 191.6 2869.1 189.6 2881.1 189.6C2894.16 189.6 2905.9 191.867 2916.3 196.4C2926.7 200.667 2934.96 206.267 2941.1 213.2C2941.9 214 2942.56 214.933 2943.1 216C2943.63 216.8 2943.9 217.733 2943.9 218.8C2943.9 220.667 2943.23 222.267 2941.9 223.6C2940.56 224.933 2938.96 225.6 2937.1 225.6C2935.23 225.6 2933.5 224.8 2931.9 223.2C2924.7 216.267 2917.1 211.2 2909.1 208C2901.36 204.533 2892.03 202.8 2881.1 202.8C2866.16 202.8 2854.43 205.867 2845.9 212C2837.63 218.133 2833.5 226.533 2833.5 237.2ZM3133.96 277.6C3133.96 261.867 3130.5 248.4 3123.56 237.2C3116.9 226 3107.7 217.467 3095.96 211.6C3084.23 205.733 3071.3 202.8 3057.16 202.8C3041.16 202.8 3026.9 206.667 3014.36 214.4C3002.1 221.867 2992.5 232.4 2985.56 246C2978.63 259.6 2975.16 274.933 2975.16 292C2975.16 309.067 2978.63 324.4 2985.56 338C2992.76 351.6 3003.16 362.267 3016.76 370C3030.36 377.467 3046.5 381.2 3065.16 381.2C3077.16 381.2 3087.96 379.333 3097.56 375.6C3107.16 371.867 3115.43 366.933 3122.36 360.8C3123.96 359.467 3125.7 358.8 3127.56 358.8C3129.16 358.8 3130.5 359.467 3131.56 360.8C3132.9 362.133 3133.56 363.733 3133.56 365.6C3133.56 366.933 3133.3 368.133 3132.76 369.2C3132.23 370.267 3131.56 371.067 3130.76 371.6C3122.5 378.533 3112.63 384.133 3101.16 388.4C3089.96 392.4 3077.96 394.4 3065.16 394.4C3044.1 394.4 3025.7 390 3009.96 381.2C2994.23 372.4 2982.1 360.267 2973.56 344.8C2965.3 329.333 2961.16 311.733 2961.16 292C2961.16 272.533 2965.3 255.067 2973.56 239.6C2981.83 223.867 2993.16 211.6 3007.56 202.8C3022.23 194 3038.76 189.6 3057.16 189.6C3074.23 189.6 3089.56 193.2 3103.16 200.4C3116.76 207.333 3127.43 217.067 3135.16 229.6C3142.9 241.867 3146.76 255.733 3146.76 271.2C3146.76 277.867 3145.3 282.8 3142.36 286C3139.7 288.933 3135.43 290.4 3129.56 290.4H2967.16V277.6H3133.96ZM3183.48 237.2C3183.48 245.2 3185.88 251.867 3190.68 257.2C3195.48 262.533 3201.48 266.8 3208.68 270C3215.88 273.2 3225.35 276.667 3237.08 280.4C3251.21 285.2 3262.41 289.6 3270.68 293.6C3279.21 297.6 3286.41 303.333 3292.28 310.8C3298.15 318 3301.08 327.333 3301.08 338.8C3301.08 350.267 3298.01 360.267 3291.88 368.8C3285.75 377.067 3277.48 383.467 3267.08 388C3256.95 392.267 3245.48 394.4 3232.68 394.4C3214.81 394.4 3199.75 391.467 3187.48 385.6C3175.48 379.467 3166.15 372.133 3159.48 363.6C3158.68 362.533 3158.01 361.6 3157.48 360.8C3156.95 359.733 3156.68 358.667 3156.68 357.6C3156.68 355.733 3157.35 354.133 3158.68 352.8C3160.01 351.2 3161.61 350.4 3163.48 350.4C3165.61 350.4 3167.75 351.467 3169.88 353.6C3185.08 372 3205.75 381.2 3231.88 381.2C3248.41 381.2 3261.75 377.6 3271.88 370.4C3282.01 363.2 3287.08 353.067 3287.08 340C3287.08 330.667 3284.41 323.067 3279.08 317.2C3274.01 311.067 3267.75 306.4 3260.28 303.2C3253.08 299.733 3242.95 295.867 3229.88 291.6C3216.55 287.333 3205.88 283.467 3197.88 280C3189.88 276.267 3183.08 271.2 3177.48 264.8C3172.15 258.133 3169.48 249.6 3169.48 239.2C3169.48 229.333 3172.01 220.667 3177.08 213.2C3182.41 205.467 3189.75 199.6 3199.08 195.6C3208.41 191.6 3219.08 189.6 3231.08 189.6C3244.15 189.6 3255.88 191.867 3266.28 196.4C3276.68 200.667 3284.95 206.267 3291.08 213.2C3291.88 214 3292.55 214.933 3293.08 216C3293.61 216.8 3293.88 217.733 3293.88 218.8C3293.88 220.667 3293.21 222.267 3291.88 223.6C3290.55 224.933 3288.95 225.6 3287.08 225.6C3285.21 225.6 3283.48 224.8 3281.88 223.2C3274.68 216.267 3267.08 211.2 3259.08 208C3251.35 204.533 3242.01 202.8 3231.08 202.8C3216.15 202.8 3204.41 205.867 3195.88 212C3187.61 218.133 3183.48 226.533 3183.48 237.2Z" fill="#F0F0F0"/>
<path d="M405.5 118H505V406H566.5V118H666V56H405.5V118ZM882.348 216.5H740.848V56.5H679.348V406H740.848V278H882.348V406H944.348V56.5H882.348V216.5ZM1036.26 344V278H1184.26V216.5H1036.26V118H1225.26V56.5H974.758V406L1225.26 405V343.5L1036.26 344ZM1447.29 56.5V286.5L1304.29 56.5L1244.29 56V406H1305.79V176L1448.79 406H1509.29V56.5H1447.29ZM1652.7 56.5L1518.7 405.5H1584.7L1599.7 367H1753.7L1768.7 405.5H1834.7L1699.7 56.5H1652.7ZM1729.7 305H1623.2L1676.2 167L1729.7 305Z" fill="#F0F0F0"/>
<path d="M200.222 46L45.3333 311.263H102L204 140.737L324.889 360.526H22.6667L0 406H408L200.222 46Z" fill="#03AA81"/>
<path d="M1741 91.5322L1766.77 81.4983L1892.5 405.695L1863.34 405.695L1741 91.5322Z" fill="#03AA81"/>
</svg>
