<svg width="2711" height="407" viewBox="0 0 2711 407" fill="none" xmlns="http://www.w3.org/2000/svg">
<path d="M1964.2 191.2C1964.2 170.4 1981.4 156.8 2011.8 156.8C2034.6 156.8 2049 164.4 2062.6 177.2C2064.2 178.8 2065.8 179.6 2067.8 179.6C2071.4 179.6 2074.6 176.4 2074.6 172.8C2074.6 170.8 2073.4 168.8 2071.8 167.2C2060.6 154.8 2039.8 143.6 2011.8 143.6C1975.4 143.6 1950.2 162.8 1950.2 193.2C1950.2 258.4 2067.8 233.2 2067.8 294C2067.8 321.2 2044.2 335.2 2012.6 335.2C1983.8 335.2 1963.8 323.6 1950.6 307.6C1948.6 305.6 1947 304.4 1944.2 304.4C1940.6 304.4 1937.4 307.6 1937.4 311.6C1937.4 313.6 1938.2 315.2 1940.2 317.6C1951.4 332 1974.2 348.4 2013.4 348.4C2051 348.4 2081.8 328.4 2081.8 292.8C2081.8 222.8 1964.2 246 1964.2 191.2Z" fill="#F0F0F0"/>
<path d="M2190.67 143.6C2151.47 143.6 2129.07 164.4 2119.07 181.6H2117.47V72C2117.47 68.4 2115.07 65.2 2110.67 65.2C2106.27 65.2 2103.87 68.4 2103.87 72V339.2C2103.87 342.8 2106.27 346 2110.67 346C2115.07 346 2117.47 342.8 2117.47 339.2V218.8C2117.47 190 2141.07 156.8 2191.07 156.8C2232.67 156.8 2257.07 178.4 2257.07 217.6V339.2C2257.07 342.8 2259.47 346 2263.87 346C2268.27 346 2270.67 342.8 2270.67 339.2V217.6C2270.67 170.8 2240.27 143.6 2190.67 143.6Z" fill="#F0F0F0"/>
<path d="M2391.7 348.4C2449.3 348.4 2493.3 304.8 2493.3 246C2493.3 186.8 2449.3 143.6 2391.7 143.6C2334.1 143.6 2290.1 186.8 2290.1 246C2290.1 304.8 2334.1 348.4 2391.7 348.4ZM2304.1 246C2304.1 194 2340.9 156.8 2391.7 156.8C2442.5 156.8 2479.3 194 2479.3 246C2479.3 297.6 2442.5 335.2 2391.7 335.2C2340.9 335.2 2304.1 297.6 2304.1 246Z" fill="#F0F0F0"/>
<path d="M2512.8 234.8V400C2512.8 403.6 2515.2 406.8 2519.6 406.8C2524 406.8 2526.4 403.6 2526.4 400V301.2H2528C2537.6 327.6 2571.2 348.4 2612.4 348.4C2673.6 348.4 2710.4 302 2710.4 246.8C2710.4 187.6 2668.4 143.6 2606 143.6C2553.6 143.6 2512.8 174.4 2512.8 234.8ZM2526.4 253.6V234.8C2526.4 182.8 2560.4 156.8 2606 156.8C2660.4 156.8 2696.4 194 2696.4 247.2C2696.4 295.6 2666.8 335.2 2610.8 335.2C2561.2 335.2 2526.4 304.4 2526.4 253.6Z" fill="#F0F0F0"/>
<path d="M405.5 72H505V360H566.5V72H666V9.99998H405.5V72Z" fill="#F0F0F0"/>
<path d="M882.348 170.5H740.848V10.5H679.348V360H740.848V232H882.348V360H944.348V10.5H882.348V170.5Z" fill="#F0F0F0"/>
<path d="M1036.26 298V232H1184.26V170.5H1036.26V72H1225.26V10.5H974.758V360L1225.26 359V297.5L1036.26 298Z" fill="#F0F0F0"/>
<path d="M1447.29 10.5V240.5L1304.29 10.5L1244.29 9.99998V360H1305.79V130L1448.79 360H1509.29V10.5H1447.29Z" fill="#F0F0F0"/>
<path d="M1652.7 10.5L1518.7 359.5H1584.7L1599.7 321H1753.7L1768.7 359.5H1834.7L1699.7 10.5H1652.7ZM1729.7 259H1623.2L1676.2 121L1729.7 259Z" fill="#F0F0F0"/>
<path d="M200.222 0L45.3333 265.263H102L204 94.7368L324.889 314.526H22.6667L0 360H408L200.222 0Z" fill="#038FF4"/>
<path d="M1741 45.532L1766.77 35.498L1887.93 359.695H1863.34L1741 45.532Z" fill="#038FF4"/>
</svg>
