<svg width="3468" height="389" viewBox="0 0 3468 389" fill="none" xmlns="http://www.w3.org/2000/svg">
<path d="M2136.18 106.6C2103.43 106.6 2081.46 122.6 2071.48 142.6C2059.1 118.2 2030.74 106.6 2008.37 106.6C1977.22 106.6 1954.06 127.8 1950.46 133.4H1948.86V115.8C1948.86 112.2 1946.47 109 1942.07 109C1937.68 109 1935.28 112.2 1935.28 115.8V302.2C1935.28 305.8 1937.68 309 1942.07 309C1946.47 309 1948.86 305.8 1948.86 302.2V166.2C1948.86 140.2 1974.42 119.8 2005.98 119.8C2037.13 119.8 2062.69 140.6 2062.69 166.2V302.2C2062.69 305.8 2065.09 309 2069.48 309C2073.87 309 2076.27 305.8 2076.27 302.2V166.2C2076.27 140.6 2101.43 119.8 2133.38 119.8C2166.13 119.8 2190.1 135.8 2190.1 171V302.2C2190.1 305.8 2192.49 309 2196.89 309C2201.28 309 2203.68 305.8 2203.68 302.2V167C2203.68 128.2 2171.73 106.6 2136.18 106.6Z" fill="#F0F0F0"/>
<path d="M2322.12 311.4C2376.84 311.4 2400.8 275.8 2405.2 265.8H2406.79V302.2C2406.79 305.8 2409.19 309 2413.58 309C2417.98 309 2420.37 305.8 2420.37 302.2V194.2C2420.37 137.4 2380.03 106.6 2325.72 106.6C2265.81 106.6 2223.07 150.6 2223.07 209.4C2223.07 265.4 2259.82 311.4 2322.12 311.4ZM2237.05 209.4C2237.05 157.8 2272.6 119.8 2326.52 119.8C2373.24 119.8 2406.79 145.8 2406.79 194.2V216.6C2406.79 261.8 2377.64 298.2 2322.12 298.2C2266.61 298.2 2237.05 258.2 2237.05 209.4Z" fill="#F0F0F0"/>
<path d="M2538.77 309C2593.49 309 2616.65 274.6 2622.24 263.8H2623.84V281C2623.84 350.2 2580.7 375.4 2535.97 375.4C2506.02 375.4 2484.85 362.6 2475.66 357.4C2474.07 356.2 2472.07 355.8 2470.87 355.8C2467.28 355.8 2464.08 359 2464.08 362.6C2464.08 364.2 2464.88 366.6 2467.28 368.2C2477.66 376.6 2506.82 388.6 2535.57 388.6C2587.49 388.6 2637.42 357 2637.42 281V194.2C2637.42 137.4 2596.68 106.6 2544.36 106.6C2481.26 106.6 2440.12 151.8 2440.12 209.8C2440.12 265 2476.86 309 2538.77 309ZM2454.1 211C2454.1 157.8 2490.84 119.8 2545.16 119.8C2589.89 119.8 2623.84 145.8 2623.84 194.2V216.6C2623.84 261.8 2594.28 295.8 2540.37 295.8C2483.65 295.8 2454.1 258.6 2454.1 211Z" fill="#F0F0F0"/>
<path d="M2756.21 311.4C2810.93 311.4 2834.89 275.8 2839.29 265.8H2840.88V302.2C2840.88 305.8 2843.28 309 2847.67 309C2852.07 309 2854.46 305.8 2854.46 302.2V194.2C2854.46 137.4 2814.13 106.6 2759.81 106.6C2699.9 106.6 2657.16 150.6 2657.16 209.4C2657.16 265.4 2693.91 311.4 2756.21 311.4ZM2671.14 209.4C2671.14 157.8 2706.69 119.8 2760.61 119.8C2807.34 119.8 2840.88 145.8 2840.88 194.2V216.6C2840.88 261.8 2811.73 298.2 2756.21 298.2C2700.7 298.2 2671.14 258.2 2671.14 209.4Z" fill="#F0F0F0"/>
<path d="M3016.79 296.2H2893.78L3017.59 119.4C3018.39 118.2 3018.79 117 3018.79 115.8C3018.79 111.8 3015.59 109 3012 109H2886.99C2883.4 109 2880.6 111.8 2880.6 115.4C2880.6 119 2883.4 121.8 2886.99 121.8H3000.02L2876.21 298.2C2875.41 299.4 2875.01 300.6 2875.01 302.2C2875.01 305.8 2877.8 309 2881.8 309H3016.79C3020.39 309 3023.18 306.2 3023.18 302.6C3023.18 299 3020.39 296.2 3016.79 296.2Z" fill="#F0F0F0"/>
<path d="M3054.71 59.4C3061.5 59.4 3065.89 55 3065.89 48.2C3065.89 41.4 3061.5 37 3054.71 37C3047.92 37 3043.52 41.4 3043.52 48.2C3043.52 55 3047.92 59.4 3054.71 59.4ZM3047.92 302.2C3047.92 305.8 3050.31 309 3054.71 309C3059.1 309 3061.5 305.8 3061.5 302.2V115.8C3061.5 112.2 3059.1 109 3054.71 109C3050.31 109 3047.92 112.2 3047.92 115.8V302.2Z" fill="#F0F0F0"/>
<path d="M3185.04 106.6C3145.1 106.6 3121.14 125.8 3111.15 145H3109.56V115.8C3109.56 112.2 3107.16 109 3102.77 109C3098.37 109 3095.98 112.2 3095.98 115.8V302.2C3095.98 305.8 3098.37 309 3102.77 309C3107.16 309 3109.56 305.8 3109.56 302.2V181.8C3109.56 153 3133.12 119.8 3183.84 119.8C3226.58 119.8 3248.94 142.6 3248.94 180.6V302.2C3248.94 305.8 3251.34 309 3255.73 309C3260.13 309 3262.52 305.8 3262.52 302.2V180.6C3262.52 132.2 3230.97 106.6 3185.04 106.6Z" fill="#F0F0F0"/>
<path d="M3454.5 194.6H3296.74C3302.33 150.2 3333.89 119.8 3377.82 119.8C3419.76 119.8 3454.5 146.2 3454.5 194.6ZM3281.97 209C3281.97 268.2 3321.11 311.4 3385.81 311.4C3412.17 311.4 3435.73 301.8 3451.31 288.6C3452.91 287.4 3454.1 285.4 3454.1 282.6C3454.1 278.6 3451.31 275.8 3448.11 275.8C3446.12 275.8 3444.92 276.2 3442.92 277.8C3430.54 288.6 3411.77 298.2 3385.81 298.2C3328.69 298.2 3295.94 260.2 3295.94 209V207.4H3450.11C3461.69 207.4 3467.28 201.8 3467.28 188.2C3467.28 141 3429.74 106.6 3377.82 106.6C3322.3 106.6 3281.97 149.8 3281.97 209Z" fill="#F0F0F0"/>
<path d="M371.784 72H471.284V360H532.784V72H632.284V10H371.784V72Z" fill="#F0F0F0"/>
<path d="M848.632 206H707.132V10.5H645.632V360H707.132V267.5H848.632V360H910.632V10.5H848.632V206Z" fill="#F0F0F0"/>
<path d="M1002.54 298V267.5H1150.54V206H1002.54V72H1191.54V10.5H941.042V360L1191.54 359V297.5L1002.54 298Z" fill="#F0F0F0"/>
<path d="M1413.57 10.5V240.5L1270.57 10.5L1210.57 10V360H1272.07V130L1415.07 360H1475.57V10.5H1413.57Z" fill="#F0F0F0"/>
<path d="M1618.98 10.5L1484.98 359.5H1550.98L1565.98 321H1719.98L1734.98 359.5H1800.98L1665.98 10.5H1618.98ZM1695.98 259H1589.48L1642.48 121L1695.98 259Z" fill="#F0F0F0"/>
<path d="M59.8688 262.72H112.522L206.008 90.3138L329.697 307.647H30.1653L0 360H412.284L206.008 0L59.8688 262.72Z" fill="#038FF4"/>
<path d="M1707.28 45.532L1733.05 35.498L1859.78 359.695L1829.63 359.695L1707.28 45.532Z" fill="#038FF4"/>
</svg>
