<svg width="3470" height="389" viewBox="0 0 3470 389" fill="none" xmlns="http://www.w3.org/2000/svg">
<path d="M2136.48 106.6C2103.68 106.6 2081.68 122.6 2071.68 142.6C2059.28 118.2 2030.88 106.6 2008.48 106.6C1977.28 106.6 1954.08 127.8 1950.48 133.4H1948.88V115.8C1948.88 112.2 1946.48 109 1942.08 109C1937.68 109 1935.28 112.2 1935.28 115.8V302.2C1935.28 305.8 1937.68 309 1942.08 309C1946.48 309 1948.88 305.8 1948.88 302.2V166.2C1948.88 140.2 1974.48 119.8 2006.08 119.8C2037.28 119.8 2062.88 140.6 2062.88 166.2V302.2C2062.88 305.8 2065.28 309 2069.68 309C2074.08 309 2076.48 305.8 2076.48 302.2V166.2C2076.48 140.6 2101.68 119.8 2133.68 119.8C2166.48 119.8 2190.48 135.8 2190.48 171V302.2C2190.48 305.8 2192.88 309 2197.28 309C2201.68 309 2204.08 305.8 2204.08 302.2V167C2204.08 128.2 2172.08 106.6 2136.48 106.6Z" fill="#2C2E30"/>
<path d="M2322.71 311.4C2377.51 311.4 2401.51 275.8 2405.91 265.8H2407.51V302.2C2407.51 305.8 2409.91 309 2414.31 309C2418.71 309 2421.11 305.8 2421.11 302.2V194.2C2421.11 137.4 2380.71 106.6 2326.31 106.6C2266.31 106.6 2223.51 150.6 2223.51 209.4C2223.51 265.4 2260.31 311.4 2322.71 311.4ZM2237.51 209.4C2237.51 157.8 2273.11 119.8 2327.11 119.8C2373.91 119.8 2407.51 145.8 2407.51 194.2V216.6C2407.51 261.8 2378.31 298.2 2322.71 298.2C2267.11 298.2 2237.51 258.2 2237.51 209.4Z" fill="#2C2E30"/>
<path d="M2539.68 309C2594.48 309 2617.68 274.6 2623.28 263.8H2624.88V281C2624.88 350.2 2581.68 375.4 2536.88 375.4C2506.88 375.4 2485.68 362.6 2476.48 357.4C2474.88 356.2 2472.88 355.8 2471.68 355.8C2468.08 355.8 2464.88 359 2464.88 362.6C2464.88 364.2 2465.68 366.6 2468.08 368.2C2478.48 376.6 2507.68 388.6 2536.48 388.6C2588.48 388.6 2638.48 357 2638.48 281V194.2C2638.48 137.4 2597.68 106.6 2545.28 106.6C2482.08 106.6 2440.88 151.8 2440.88 209.8C2440.88 265 2477.68 309 2539.68 309ZM2454.88 211C2454.88 157.8 2491.68 119.8 2546.08 119.8C2590.88 119.8 2624.88 145.8 2624.88 194.2V216.6C2624.88 261.8 2595.28 295.8 2541.28 295.8C2484.48 295.8 2454.88 258.6 2454.88 211Z" fill="#2C2E30"/>
<path d="M2757.46 311.4C2812.26 311.4 2836.26 275.8 2840.66 265.8H2842.26V302.2C2842.26 305.8 2844.66 309 2849.06 309C2853.46 309 2855.86 305.8 2855.86 302.2V194.2C2855.86 137.4 2815.46 106.6 2761.06 106.6C2701.06 106.6 2658.26 150.6 2658.26 209.4C2658.26 265.4 2695.06 311.4 2757.46 311.4ZM2672.26 209.4C2672.26 157.8 2707.86 119.8 2761.86 119.8C2808.66 119.8 2842.26 145.8 2842.26 194.2V216.6C2842.26 261.8 2813.06 298.2 2757.46 298.2C2701.86 298.2 2672.26 258.2 2672.26 209.4Z" fill="#2C2E30"/>
<path d="M3018.43 296.2H2895.23L3019.23 119.4C3020.03 118.2 3020.43 117 3020.43 115.8C3020.43 111.8 3017.23 109 3013.63 109H2888.43C2884.83 109 2882.03 111.8 2882.03 115.4C2882.03 119 2884.83 121.8 2888.43 121.8H3001.63L2877.63 298.2C2876.83 299.4 2876.43 300.6 2876.43 302.2C2876.43 305.8 2879.23 309 2883.23 309H3018.43C3022.03 309 3024.83 306.2 3024.83 302.6C3024.83 299 3022.03 296.2 3018.43 296.2Z" fill="#2C2E30"/>
<path d="M3056.41 59.4C3063.21 59.4 3067.61 55 3067.61 48.2C3067.61 41.4 3063.21 37 3056.41 37C3049.61 37 3045.21 41.4 3045.21 48.2C3045.21 55 3049.61 59.4 3056.41 59.4ZM3049.61 302.2C3049.61 305.8 3052.01 309 3056.41 309C3060.81 309 3063.21 305.8 3063.21 302.2V115.8C3063.21 112.2 3060.81 109 3056.41 109C3052.01 109 3049.61 112.2 3049.61 115.8V302.2Z" fill="#2C2E30"/>
<path d="M3186.94 106.6C3146.94 106.6 3122.94 125.8 3112.94 145H3111.34V115.8C3111.34 112.2 3108.94 109 3104.54 109C3100.14 109 3097.74 112.2 3097.74 115.8V302.2C3097.74 305.8 3100.14 309 3104.54 309C3108.94 309 3111.34 305.8 3111.34 302.2V181.8C3111.34 153 3134.94 119.8 3185.74 119.8C3228.54 119.8 3250.94 142.6 3250.94 180.6V302.2C3250.94 305.8 3253.34 309 3257.74 309C3262.14 309 3264.54 305.8 3264.54 302.2V180.6C3264.54 132.2 3232.94 106.6 3186.94 106.6Z" fill="#2C2E30"/>
<path d="M3456.81 194.6H3298.81C3304.41 150.2 3336.01 119.8 3380.01 119.8C3422.01 119.8 3456.81 146.2 3456.81 194.6ZM3284.01 209C3284.01 268.2 3323.21 311.4 3388.01 311.4C3414.41 311.4 3438.01 301.8 3453.61 288.6C3455.21 287.4 3456.41 285.4 3456.41 282.6C3456.41 278.6 3453.61 275.8 3450.41 275.8C3448.41 275.8 3447.21 276.2 3445.21 277.8C3432.81 288.6 3414.01 298.2 3388.01 298.2C3330.81 298.2 3298.01 260.2 3298.01 209V207.4H3452.41C3464.01 207.4 3469.61 201.8 3469.61 188.2C3469.61 141 3432.01 106.6 3380.01 106.6C3324.41 106.6 3284.01 149.8 3284.01 209Z" fill="#2C2E30"/>
<path d="M371.784 72H471.284V360H532.784V72H632.284V10H371.784V72Z" fill="#2C2E30"/>
<path d="M848.632 206H707.132V10.5H645.632V360H707.132V267.5H848.632V360H910.632V10.5H848.632V206Z" fill="#2C2E30"/>
<path d="M1002.54 298V267.5H1150.54V206H1002.54V72H1191.54V10.5H941.042V360L1191.54 359V297.5L1002.54 298Z" fill="#2C2E30"/>
<path d="M1413.57 10.5V240.5L1270.57 10.5L1210.57 10V360H1272.07V130L1415.07 360H1475.57V10.5H1413.57Z" fill="#2C2E30"/>
<path d="M1618.98 10.5L1484.98 359.5H1550.98L1565.98 321H1719.98L1734.98 359.5H1800.98L1665.98 10.5H1618.98ZM1695.98 259H1589.48L1642.48 121L1695.98 259Z" fill="#2C2E30"/>
<path d="M59.8688 262.72H112.522L206.008 90.3138L329.696 307.647H30.1654L0 360H412.284L206.008 0L59.8688 262.72Z" fill="white"/>
<path d="M1707.28 45.532L1733.05 35.498L1859.78 359.695L1829.63 359.695L1707.28 45.532Z" fill="white"/>
</svg>
