<svg width="756" height="936" viewBox="0 0 756 936" fill="none" xmlns="http://www.w3.org/2000/svg">
<path d="M151.982 460.9L707.582 609.8V730.8L151.982 581.9V460.9Z" fill="url(#paint0_linear_252_809)"/>
<path d="M630.482 589.2L605.782 595.8L590.582 591.8L615.382 585.1L630.482 589.2Z" fill="url(#paint1_linear_252_809)"/>
<path d="M605.782 595.8L692.682 691L677.582 686.9L590.582 591.8L605.782 595.8Z" fill="url(#paint2_linear_252_809)"/>
<path d="M630.481 589.2L692.681 657.3V691L605.781 595.8L630.481 589.2Z" fill="url(#paint3_linear_252_809)"/>
<path d="M209.782 475.7L185.082 482.3L169.982 478.2L194.682 471.6L209.782 475.7Z" fill="url(#paint4_linear_252_809)"/>
<path d="M185.082 482.3L271.982 577.4L256.882 573.4L169.982 478.2L185.082 482.3Z" fill="url(#paint5_linear_252_809)"/>
<path d="M209.782 475.7L271.982 543.7V577.4L185.082 482.3L209.782 475.7Z" fill="url(#paint6_linear_252_809)"/>
<path d="M63.1816 484L618.782 632.8V645.6L63.1816 496.7V484Z" fill="url(#paint7_linear_252_809)"/>
<path d="M618.781 632.8L707.581 609V621.8L618.781 645.6V632.8Z" fill="url(#paint8_linear_252_809)"/>
<path d="M63.1816 484L151.982 460.2L707.582 609L618.782 632.8L63.1816 484Z" fill="url(#paint9_linear_252_809)"/>
<path d="M631.883 878.4C631.883 875.1 636.683 871.7 646.083 869.2C665.083 864.1 695.883 864.1 714.883 869.2C724.383 871.7 729.083 875.1 729.083 878.4C729.083 881.7 724.283 885.1 714.883 887.6C695.883 892.7 665.083 892.7 646.083 887.6C636.583 885.1 631.883 881.7 631.883 878.4Z" fill="url(#paint10_linear_252_809)"/>
<path d="M631.883 803.4C631.883 805.9 635.483 808.5 642.783 810.4C657.283 814.3 680.783 814.3 695.283 810.4C702.583 808.5 706.183 805.9 706.183 803.4V878.5C706.183 881 702.583 883.6 695.283 885.5C680.783 889.4 657.283 889.4 642.783 885.5C635.483 883.6 631.883 881 631.883 878.5V803.4Z" fill="url(#paint11_linear_252_809)"/>
<path d="M631.883 803.4C631.883 800.9 635.483 798.3 642.783 796.4C657.283 792.5 680.783 792.5 695.283 796.4C702.583 798.3 706.183 800.9 706.183 803.4C706.183 805.9 702.583 808.5 695.283 810.4C680.783 814.3 657.283 814.3 642.783 810.4C635.483 808.5 631.883 805.9 631.883 803.4Z" fill="url(#paint12_linear_252_809)"/>
<path d="M695.283 807.2C680.783 803.3 657.283 803.3 642.783 807.2C640.883 807.7 639.283 808.3 637.883 808.8C639.283 809.4 640.883 809.9 642.783 810.4C657.283 814.3 680.783 814.3 695.283 810.4C697.183 809.9 698.783 809.3 700.183 808.8C698.783 808.2 697.183 807.7 695.283 807.2Z" fill="url(#paint13_linear_252_809)"/>
<path d="M668.982 813.4C668.982 813.4 671.682 757.8 687.182 732.8C705.882 702.6 745.782 719.8 744.382 747.8C742.982 775.8 741.082 794 747.182 798.5C747.182 798.5 722.582 780.7 711.782 760.8C701.082 740.9 701.782 720.7 717.682 719.2C717.682 719.2 702.182 712.9 689.082 734.6C676.082 756.3 672.282 813.4 672.282 813.4C672.282 813.4 671.782 813.6 668.982 813.4Z" fill="url(#paint14_linear_252_809)"/>
<path d="M668.983 813.4C668.983 813.4 668.383 756.7 626.683 753C584.983 749.3 575.183 792.8 582.383 823.3C582.383 823.3 582.883 814.4 590.583 808.3C598.283 802.2 595.283 793.8 595.483 786.3C595.683 778.8 641.083 796.5 635.283 757C635.283 757 666.183 762.8 665.583 813.5H668.983V813.4Z" fill="url(#paint15_linear_252_809)"/>
<path d="M672.282 813.4C672.282 813.4 671.682 774.8 653.382 722.9C653.382 722.9 665.682 697.5 651.382 686C637.082 674.4 613.882 672.4 610.382 658.6C606.882 644.9 585.182 638.2 565.382 644.9C565.382 644.9 564.182 659.3 580.182 669.1C591.782 676.2 598.182 683.2 600.082 701.3C602.482 724.3 625.982 746.3 651.482 725.5C651.482 725.5 668.182 764.4 669.082 813.4H672.282V813.4Z" fill="url(#paint16_linear_252_809)"/>
<path d="M675.082 693C675.082 693 668.582 676.4 684.682 666.1C700.782 655.9 715.082 662.4 720.382 656.2C725.682 650 748.982 658.6 754.482 640.2C754.482 640.2 757.082 667.6 724.682 680.3C692.282 693 675.082 693 675.082 693Z" fill="url(#paint17_linear_252_809)"/>
<path d="M668.982 813.4C668.982 813.4 656.782 724.9 672.282 692.3C687.782 659.7 749.582 679.5 754.482 640.1C754.482 640.1 757.582 663.4 752.882 673.4C748.182 683.3 740.482 679.3 737.682 689.2C734.882 699.1 693.282 722.1 674.982 692.9C674.982 692.9 667.582 706.5 665.682 737.2C663.782 767.9 670.782 813.3 670.782 813.3H668.982V813.4Z" fill="url(#paint18_linear_252_809)"/>
<path d="M565.282 644.9C565.282 644.9 564.082 659.3 580.082 669.1C591.682 676.2 598.082 683.2 599.982 701.3C602.382 724.3 625.882 746.3 651.382 725.5C651.382 725.6 624.182 667.6 565.282 644.9Z" fill="url(#paint19_linear_252_809)"/>
<path d="M181.483 83.9C183.283 83.4 185.283 83.4 187.283 84L710.983 224.3C719.783 226.7 726.883 238.3 726.883 250.3V559.2C726.883 568.4 722.683 575.1 716.783 576.7C714.983 577.2 712.983 577.2 710.983 576.6L187.283 436.3C178.483 433.9 171.383 422.3 171.383 410.3V101.4C171.383 92.2 175.483 85.5 181.483 83.9Z" fill="url(#paint20_linear_252_809)"/>
<path d="M374.983 154.4C375.683 154.2 376.383 154.2 377.183 154.4L570.783 206.3C574.083 207.2 576.683 211.5 576.683 215.9V520.7C576.683 524.1 575.183 526.6 572.983 527.2C572.283 527.4 571.583 527.4 570.783 527.2L377.183 475.3C373.883 474.4 371.283 470.1 371.283 465.7V160.8C371.283 157.4 372.783 154.9 374.983 154.4Z" fill="url(#paint21_linear_252_809)"/>
<path d="M402.182 358.2C402.482 358.1 402.782 358.1 403.182 358.2L549.782 397.5C551.282 397.9 552.482 399.9 552.482 401.9C552.482 403.5 551.782 404.6 550.782 404.9C550.482 405 550.182 405 549.782 404.9L403.182 365.6C401.682 365.2 400.482 363.2 400.482 361.2C400.482 359.6 401.182 358.4 402.182 358.2Z" fill="url(#paint22_linear_252_809)"/>
<path d="M402.182 380.4C402.482 380.3 402.782 380.3 403.182 380.4L549.782 419.7C551.282 420.1 552.482 422.1 552.482 424.1C552.482 425.7 551.782 426.8 550.782 427.1C550.482 427.2 550.182 427.2 549.782 427.1L403.182 387.8C401.682 387.4 400.482 385.4 400.482 383.4C400.482 381.9 401.182 380.7 402.182 380.4Z" fill="url(#paint23_linear_252_809)"/>
<path d="M402.182 402.7C402.482 402.6 402.782 402.6 403.182 402.7L489.782 425.9C491.282 426.3 492.482 428.3 492.482 430.3C492.482 431.9 491.782 433 490.782 433.3C490.482 433.4 490.182 433.4 489.782 433.3L403.182 410.1C401.682 409.7 400.482 407.7 400.482 405.7C400.482 404.2 401.182 403 402.182 402.7Z" fill="url(#paint24_linear_252_809)"/>
<path d="M594.282 212.2C594.682 212.1 595.082 212.1 595.582 212.2L708.282 242.4C710.182 242.9 711.682 245.4 711.682 248V338.3C711.682 340.3 710.782 341.7 709.482 342.1C709.082 342.2 708.682 342.2 708.182 342.1L595.482 311.9C593.582 311.4 592.082 308.9 592.082 306.3V216C592.082 214 592.982 212.5 594.282 212.2Z" fill="url(#paint25_linear_252_809)"/>
<path d="M605.684 230C605.984 229.9 606.184 229.9 606.484 230L638.084 238.5C639.384 238.8 640.384 240.5 640.384 242.3C640.384 243.6 639.784 244.6 638.884 244.9C638.584 245 638.384 245 638.084 244.9L606.484 236.4C605.184 236.1 604.184 234.4 604.184 232.6C604.184 231.2 604.784 230.2 605.684 230Z" fill="url(#paint26_linear_252_809)"/>
<path d="M605.684 245C605.984 244.9 606.184 244.9 606.484 245L621.884 249.1C623.184 249.4 624.184 251.1 624.184 252.9C624.184 254.2 623.584 255.2 622.684 255.5C622.384 255.6 622.184 255.6 621.884 255.5L606.484 251.4C605.184 251.1 604.184 249.4 604.184 247.6C604.184 246.3 604.784 245.3 605.684 245Z" fill="url(#paint27_linear_252_809)"/>
<path d="M594.282 330.8C594.682 330.7 595.082 330.7 595.582 330.8L708.282 361C710.182 361.5 711.682 364 711.682 366.6V456.9C711.682 458.9 710.782 460.3 709.482 460.7C709.082 460.8 708.682 460.8 708.182 460.7L595.482 430.5C593.582 430 592.082 427.5 592.082 424.9V334.6C592.082 332.6 592.982 331.2 594.282 330.8Z" fill="url(#paint28_linear_252_809)"/>
<path d="M201.584 208.4L255.584 222.8V298.5L201.584 284.1V208.4Z" fill="url(#paint29_linear_252_809)"/>
<path d="M200.784 207L255.484 221.7C255.484 221.7 258.284 267.5 231.384 282.5L175.684 268.4C175.784 268.4 205.084 248.7 200.784 207Z" fill="white"/>
<path d="M209.684 231.5L243.684 240.9" stroke="url(#paint30_linear_252_809)" stroke-width="3" stroke-miterlimit="10" stroke-linecap="round" stroke-linejoin="round"/>
<path d="M204.984 244L238.984 253.4" stroke="url(#paint31_linear_252_809)" stroke-width="3" stroke-miterlimit="10" stroke-linecap="round" stroke-linejoin="round"/>
<path d="M199.783 255.4L221.983 261.8" stroke="url(#paint32_linear_252_809)" stroke-width="3" stroke-miterlimit="10" stroke-linecap="round" stroke-linejoin="round"/>
<path d="M539.282 225.6C539.782 225.5 540.282 225.5 540.882 225.6L548.282 227.6C550.582 228.2 552.582 231.3 552.582 234.5V361.9C552.582 364.4 551.482 366.1 549.882 366.6C549.382 366.7 548.882 366.7 548.282 366.6L540.882 364.6C538.582 364 536.582 360.9 536.582 357.7V230.3C536.582 227.8 537.682 226 539.282 225.6Z" fill="url(#paint33_linear_252_809)"/>
<path d="M505.283 241C505.683 240.9 506.183 240.9 506.683 241L514.883 243.2C516.983 243.8 518.783 246.6 518.783 249.5V353.4C518.783 355.6 517.783 357.3 516.383 357.6C515.983 357.7 515.483 357.7 514.983 357.6L506.783 355.4C504.683 354.8 502.883 352 502.883 349.1V245.3C502.783 243 503.883 241.4 505.283 241Z" fill="url(#paint34_linear_252_809)"/>
<path d="M470.982 276.5C471.282 276.4 471.682 276.4 472.082 276.5L481.982 279.2C483.682 279.6 484.982 281.8 484.982 284.1V345.6C484.982 347.3 484.182 348.6 483.082 348.9C482.782 349 482.382 349 481.982 348.9L472.082 346.2C470.382 345.8 469.082 343.6 469.082 341.3V279.8C469.082 278.1 469.882 276.8 470.982 276.5Z" fill="url(#paint35_linear_252_809)"/>
<path d="M437.383 250.8C437.783 250.7 438.183 250.7 438.583 250.8L447.783 253.3C449.683 253.8 451.183 256.2 451.183 258.8V336C451.183 337.9 450.283 339.4 449.083 339.7C448.683 339.8 448.283 339.8 447.883 339.7L438.683 337.2C436.783 336.7 435.283 334.3 435.283 331.7V254.4C435.283 252.6 436.183 251.1 437.383 250.8Z" fill="url(#paint36_linear_252_809)"/>
<path d="M403.182 273.5C403.482 273.4 403.782 273.4 404.182 273.5L414.782 276.3C416.282 276.7 417.482 278.6 417.482 280.6V327.8C417.482 329.3 416.782 330.5 415.782 330.7C415.482 330.8 415.182 330.8 414.782 330.7L404.182 327.9C402.682 327.5 401.482 325.6 401.482 323.6V276.4C401.482 274.9 402.182 273.8 403.182 273.5Z" fill="url(#paint37_linear_252_809)"/>
<path d="M679.383 315.2C688.083 312.9 694.183 303 694.183 289.5C694.183 271.9 683.683 254.8 670.783 251.3C667.783 250.5 664.883 250.5 662.183 251.2C653.483 253.5 647.383 263.4 647.383 276.9C647.383 294.5 657.883 311.6 670.783 315.1C673.783 316 676.683 315.9 679.383 315.2Z" stroke="url(#paint38_linear_252_809)" stroke-width="6" stroke-miterlimit="10"/>
<path d="M694.184 289.5C694.184 271.9 683.684 254.8 670.784 251.3C667.784 250.5 664.884 250.5 662.184 251.2" stroke="url(#paint39_linear_252_809)" stroke-width="6" stroke-miterlimit="10" stroke-linecap="round" stroke-linejoin="round"/>
<path d="M643.982 366.2C655.082 363.2 667.682 374.1 672.082 390.4C676.482 406.7 670.982 422.4 659.882 425.4C648.782 428.4 636.182 417.5 631.782 401.2C627.382 384.9 632.782 369.2 643.982 366.2Z" fill="url(#paint40_linear_252_809)"/>
<path d="M640.082 395.6L648.082 405.2L661.682 389.9" fill="url(#paint41_linear_252_809)"/>
<path d="M640.082 395.6L648.082 405.2L661.682 389.9" stroke="white" stroke-width="4" stroke-miterlimit="10" stroke-linecap="round" stroke-linejoin="round"/>
<path d="M252.882 182.6C257.41 182.6 261.082 178.929 261.082 174.4C261.082 169.871 257.41 166.2 252.882 166.2C248.353 166.2 244.682 169.871 244.682 174.4C244.682 178.929 248.353 182.6 252.882 182.6Z" fill="url(#paint42_linear_252_809)"/>
<path d="M292.782 158.7L260.382 135H245.282L212.982 158.7C210.982 160 209.982 161.4 209.982 162.9C209.982 169.3 229.182 174.4 252.882 174.4C276.582 174.4 295.782 169.2 295.782 162.9C295.782 161.5 294.682 160 292.782 158.7Z" fill="url(#paint43_linear_252_809)"/>
<path d="M252.883 137.2C257.081 137.2 260.483 136.305 260.483 135.2C260.483 134.095 257.081 133.2 252.883 133.2C248.686 133.2 245.283 134.095 245.283 135.2C245.283 136.305 248.686 137.2 252.883 137.2Z" fill="url(#paint44_linear_252_809)"/>
<path d="M252.882 135.6C251.582 135.6 250.482 134.5 250.482 133.2V2.4C250.482 1.1 251.582 0 252.882 0C254.182 0 255.282 1.1 255.282 2.4V133.1C255.282 134.5 254.182 135.6 252.882 135.6Z" fill="url(#paint45_linear_252_809)"/>
<path d="M658.682 182.6C663.211 182.6 666.882 178.929 666.882 174.4C666.882 169.871 663.211 166.2 658.682 166.2C654.154 166.2 650.482 169.871 650.482 174.4C650.482 178.929 654.154 182.6 658.682 182.6Z" fill="url(#paint46_linear_252_809)"/>
<path d="M698.482 158.7L666.182 135H651.082L618.682 158.7C616.682 160 615.682 161.4 615.682 162.9C615.682 169.3 634.882 174.4 658.582 174.4C682.282 174.4 701.482 169.2 701.482 162.9C701.582 161.5 700.482 160 698.482 158.7Z" fill="url(#paint47_linear_252_809)"/>
<path d="M658.682 137.2C662.879 137.2 666.282 136.305 666.282 135.2C666.282 134.095 662.879 133.2 658.682 133.2C654.485 133.2 651.082 134.095 651.082 135.2C651.082 136.305 654.485 137.2 658.682 137.2Z" fill="url(#paint48_linear_252_809)"/>
<path d="M658.681 135.6C657.381 135.6 656.281 134.5 656.281 133.2V2.4C656.281 1.1 657.381 0 658.681 0C659.981 0 661.081 1.1 661.081 2.4V133.1C661.081 134.5 659.981 135.6 658.681 135.6Z" fill="url(#paint49_linear_252_809)"/>
<path d="M405.481 557.7C409.481 558.9 428.081 564.1 437.681 565.3C444.481 566.2 471.981 578.1 522.681 593.4C547.681 600.9 555.981 566 528.581 560.5C491.781 553.1 450.481 546 446.481 543.6C442.481 541.2 438.581 535.7 436.281 532.8C434.081 530.1 432.481 527.6 430.481 527.6C428.481 527.7 429.981 532.3 431.181 534.8C432.381 537.3 433.781 540.8 431.181 540C431.181 540 414.681 534.8 410.181 533.4C405.681 532 404.481 536.9 408.681 538.4C412.781 539.9 425.481 544.7 425.481 544.7C425.481 544.7 406.481 539.3 402.381 538.2C398.281 537.1 396.981 542.4 401.581 543.9C406.181 545.4 423.381 550.3 423.381 550.3C423.381 550.3 410.081 547.1 403.981 545.8C399.481 544.8 398.181 549.5 403.281 551.1C409.581 553 422.181 556.5 422.181 556.5C422.181 556.5 411.281 554.2 406.381 553.4C403.181 552.9 401.481 556.5 405.481 557.7Z" fill="url(#paint50_linear_252_809)"/>
<path d="M503.383 549.7C503.383 549.7 505.083 559.3 509.183 579.4C513.783 601.8 551.583 599.5 545.983 570.6C539.983 539.9 539.383 537.3 539.383 537.3L503.383 549.7Z" fill="url(#paint51_linear_252_809)"/>
<path d="M502.382 556.5C500.682 556.1 499.382 554.6 499.082 552.8C497.882 544.1 494.182 517.2 493.182 500C491.682 475.7 529.682 469 537.082 497.8C541.982 516.7 543.682 538 544.082 545.5C544.182 547.2 543.282 548.9 541.782 549.7C535.582 553 518.682 560.7 502.382 556.5Z" fill="url(#paint52_linear_252_809)"/>
<path d="M371.281 491.9L445.681 511.8L453.981 538.6L379.581 518.7L371.281 491.9Z" fill="url(#paint53_linear_252_809)"/>
<path d="M296.883 511.8L371.283 491.9L445.683 511.8L371.283 531.8L296.883 511.8Z" fill="url(#paint54_linear_252_809)"/>
<path d="M445.681 511.8L371.281 491.9V531.8L445.681 511.8Z" fill="url(#paint55_linear_252_809)"/>
<path d="M338.482 473.4C338.982 473.3 339.482 473.3 340.082 473.4L389.282 486.6C391.682 487.2 393.682 490.4 393.682 493.7V569.6C393.682 572.1 392.482 574 390.882 574.4C390.382 574.5 389.882 574.5 389.282 574.4L340.082 561.2C337.682 560.6 335.682 557.4 335.682 554.1V478.2C335.782 475.7 336.882 473.9 338.482 473.4Z" fill="url(#paint56_linear_252_809)"/>
<path d="M329.683 475.9C330.183 475.8 330.683 475.8 331.283 475.9L380.483 489.1C382.883 489.7 384.883 492.9 384.883 496.2V572.1C384.883 574.6 383.683 576.5 382.083 576.9C381.583 577 381.083 577 380.483 576.9L331.283 563.7C328.883 563.1 326.883 559.9 326.883 556.6V480.7C326.883 478.2 328.083 476.4 329.683 475.9Z" fill="url(#paint57_linear_252_809)"/>
<path d="M320.882 488.4C321.382 488.3 321.882 488.3 322.482 488.4L371.682 501.6C374.082 502.2 376.082 505.4 376.082 508.7V584.6C376.082 587.1 374.882 589 373.282 589.4C372.782 589.5 372.282 589.5 371.682 589.4L322.482 576.2C320.082 575.6 318.082 572.4 318.082 569.1V493.2C318.082 490.7 319.182 488.9 320.882 488.4Z" fill="url(#paint58_linear_252_809)"/>
<path d="M296.883 511.8L371.283 531.8V608.2L296.883 588.2V511.8Z" fill="url(#paint59_linear_252_809)"/>
<path d="M296.882 511.8L371.282 531.8L362.982 558.6L288.582 538.6L296.882 511.8Z" fill="url(#paint60_linear_252_809)"/>
<path d="M371.281 531.8L445.681 511.8V588.2L371.281 608.2V531.8Z" fill="url(#paint61_linear_252_809)"/>
<path d="M496.581 476.4C496.581 476.4 492.781 462.7 496.581 453.1C499.381 445.9 516.881 430.3 506.881 407.3C498.781 388.6 460.781 381.3 452.181 404.4C444.581 424.7 443.481 428.9 440.681 433.5C438.581 436.9 441.781 437.7 443.481 438.1C443.381 440.5 442.481 448.2 446.381 453.5C451.781 461 460.981 458.3 455.781 473.7L496.581 476.4Z" fill="url(#paint62_linear_252_809)"/>
<path d="M458.18 407.7C458.18 407.7 444.48 404.6 446.58 392.7C448.98 378.8 466.88 374.4 490.48 385.2C505.28 392 510.78 400.8 508.88 411.2C508.88 411.2 516.18 420 509.58 438.9C504.78 452.9 494.48 462.1 476.68 457.5C461.78 453.6 462.48 440.8 462.48 440.8C462.48 440.8 473.98 439.5 473.68 429.8C473.38 420.8 462.48 421 461.38 430.1C461.38 430.1 461.98 427.6 456.48 420.9C453.58 417.6 454.18 410.8 458.18 407.7Z" fill="url(#paint63_linear_252_809)"/>
<path d="M618.78 925.7H507.58L488.48 905.2H618.78V925.7Z" fill="url(#paint64_linear_252_809)"/>
<path d="M535.882 935.1H424.582L405.582 916.8H535.882V935.1Z" fill="url(#paint65_linear_252_809)"/>
<path d="M517.581 868.3C517.581 868.3 515.181 895.9 520.681 905.5C526.981 916.6 517.681 926.8 504.681 925.6C494.081 924.6 483.881 920 464.681 915.3C445.481 910.6 442.281 897.5 450.081 893.5C456.881 890 490.181 899.5 491.481 873.4L517.581 868.3Z" fill="url(#paint66_linear_252_809)"/>
<path d="M535.682 616.8C535.682 616.8 536.882 629.6 532.482 664.3C528.182 697.9 519.182 718.5 520.282 725.9C521.382 733.3 522.782 779.2 521.082 826.9C519.682 865.4 518.382 878.4 518.382 878.4C510.082 883.7 499.382 883.5 491.282 878L490.682 877.6C490.682 877.6 473.882 749.9 473.382 738.4C472.882 727 471.182 620.6 471.182 620.6L535.682 616.8Z" fill="url(#paint67_linear_252_809)"/>
<path d="M520.382 915.6C516.282 921.9 501.982 922.2 491.982 917.5C481.882 912.8 465.382 911.5 454.582 905.5C447.582 901.6 447.282 897.5 447.882 895.1C443.182 900.3 447.582 911.1 464.682 915.2C483.882 919.9 493.982 924.5 504.682 925.5C516.782 926.6 525.682 917.9 521.782 907.8C522.182 910.3 521.982 913.1 520.382 915.6Z" fill="url(#paint68_linear_252_809)"/>
<path d="M439.082 890C439.082 890 437.382 904.7 439.682 917.1C442.282 931.1 436.682 935.6 429.882 935.7C409.082 936.1 381.182 932.7 365.582 928.9C355.982 926.5 358.282 912.7 373.682 911.3C404.682 908.5 411.182 888.5 411.182 888.5L439.082 890Z" fill="url(#paint69_linear_252_809)"/>
<path d="M503.382 610L432.482 614.8C432.482 614.8 425.482 657.7 420.582 682.2C416.382 703.4 415.982 726.3 415.982 739.5C415.982 752.7 411.082 890 411.082 890C429.382 897 439.082 890 439.082 890C439.082 890 464.082 796.3 465.882 768.8C467.682 741.3 467.682 732 470.582 726.9C475.782 718.2 496.882 651.3 503.382 610Z" fill="url(#paint70_linear_252_809)"/>
<path d="M440.181 925.8C435.881 935.7 377.281 927.4 370.081 925.6C366.781 924.8 359.481 922.4 360.281 919.4C358.781 923.4 360.581 927.6 365.481 928.8C381.081 932.7 409.081 936 429.781 935.6C434.981 935.6 439.381 933 440.181 925.8Z" fill="url(#paint71_linear_252_809)"/>
<path d="M442.182 482.2C442.182 482.2 443.982 478.9 450.582 473.1C459.882 464.8 487.982 462.7 498.782 468C505.182 471.1 511.782 480.3 511.782 480.3L442.182 482.2Z" fill="url(#paint72_linear_252_809)"/>
<path d="M512.38 475.4C487.08 468.3 465.68 471.5 449.38 477.6C427.58 485.7 414.98 498.9 414.98 498.9C414.98 498.9 431.08 527 434.88 542.7C438.28 556.8 429.78 618 428.78 629.1C428.58 629.7 428.48 630.4 428.58 631C429.08 634.8 435.08 637.9 446.38 639.3C468.98 642.1 504.38 637.1 525.38 628.2C535.88 623.7 540.78 619.2 540.28 615.3C540.28 615 540.18 614.7 539.98 614.4C538.88 610.5 534.78 595.3 532.98 584.3C527.18 549.2 532.38 540.1 535.48 511.3C537.78 489.1 528.58 480 512.38 475.4Z" fill="url(#paint73_linear_252_809)"/>
<path d="M403.181 560.4C403.181 560.4 401.181 569.9 397.681 590.1C393.781 612.6 429.781 624.4 435.081 595.4C440.781 564.6 441.181 562 441.181 562L403.181 560.4Z" fill="url(#paint74_linear_252_809)"/>
<path d="M403.381 565.6C401.881 564.6 401.081 562.8 401.481 561.1C403.081 552.4 405.681 524.4 409.981 507.8C416.181 484.3 450.981 486.9 449.081 516.5C447.781 536 442.781 560.7 440.881 568C440.481 569.7 439.081 571 437.381 571.3C430.281 572.3 417.481 574.7 403.381 565.6Z" fill="url(#paint75_linear_252_809)"/>
<path d="M292.782 579.9C296.782 581 315.582 585.6 325.182 586.6C331.982 587.3 359.882 598.4 410.982 612.2C436.182 619 443.482 583.8 415.882 579.1C378.882 572.8 337.482 566.9 333.282 564.6C329.182 562.3 325.182 556.9 322.782 554.1C320.582 551.4 318.882 549 316.882 549.1C314.882 549.2 316.482 553.8 317.782 556.3C318.982 558.8 320.582 562.2 317.882 561.5C317.882 561.5 301.182 556.8 296.682 555.5C292.182 554.3 291.182 559.2 295.282 560.6C299.482 562 312.282 566.4 312.282 566.4C312.282 566.4 293.082 561.5 288.982 560.5C284.882 559.5 283.682 564.9 288.382 566.2C293.082 567.5 310.382 571.9 310.382 571.9C310.382 571.9 296.982 569.1 290.882 568C286.282 567.2 285.182 571.9 290.382 573.3C296.782 575 309.482 578.1 309.482 578.1C309.482 578.1 298.582 576.1 293.682 575.5C290.282 575.2 288.682 578.8 292.782 579.9Z" fill="url(#paint76_linear_252_809)"/>
<path d="M130.482 856.5C130.482 851.7 137.282 847 150.882 843.3C178.082 836 222.082 836 249.182 843.3C262.782 846.9 269.582 851.7 269.582 856.5C269.582 861.3 262.782 866 249.182 869.7C221.982 877 177.982 877 150.882 869.7C137.282 866.1 130.482 861.3 130.482 856.5Z" fill="url(#paint77_linear_252_809)"/>
<path d="M199.982 763.4V868" stroke="url(#paint78_linear_252_809)" stroke-width="10" stroke-miterlimit="10" stroke-linecap="round" stroke-linejoin="round"/>
<path d="M155.781 748.8L137.781 853.4" stroke="url(#paint79_linear_252_809)" stroke-width="10" stroke-miterlimit="10" stroke-linecap="round" stroke-linejoin="round"/>
<path d="M244.281 748.8L262.281 853.4" stroke="url(#paint80_linear_252_809)" stroke-width="10" stroke-miterlimit="10" stroke-linecap="round" stroke-linejoin="round"/>
<path d="M129.082 748.8C129.082 753.7 135.982 758.5 149.882 762.2C177.582 769.6 222.482 769.6 250.182 762.2C264.082 758.5 270.982 753.6 270.982 748.8V765.3C270.982 770.2 264.082 775 250.182 778.7C222.482 786.1 177.582 786.1 149.882 778.7C135.982 775 129.082 770.1 129.082 765.3V748.8V748.8Z" fill="url(#paint81_linear_252_809)"/>
<path d="M129.082 748.8C129.082 743.9 135.982 739.1 149.882 735.4C177.582 728 222.482 728 250.182 735.4C264.082 739.1 270.982 744 270.982 748.8C270.982 753.7 264.082 758.5 250.182 762.2C222.482 769.6 177.582 769.6 149.882 762.2C135.982 758.5 129.082 753.7 129.082 748.8Z" fill="url(#paint82_linear_252_809)"/>
<path d="M42.5816 652.2C42.5816 652.2 25.1816 682.9 10.6816 694.3C2.38157 700.9 4.98157 705.7 17.3816 715.5C29.6816 725.4 43.5816 736.9 48.8816 737.7C54.1816 738.5 53.8816 736.2 46.7816 727.5C32.8816 710.2 40.7816 699.8 67.9816 666.7L42.5816 652.2Z" fill="url(#paint83_linear_252_809)"/>
<path d="M113.982 409.2C113.982 409.2 93.1816 439.5 94.5816 483.1C96.2816 536.1 113.882 550.5 100.682 565.4C87.5816 580.3 57.3816 620.8 40.1816 655C40.1816 655 54.1816 657.2 64.2816 672.8C64.2816 672.8 131.982 600.2 140.182 588.1C148.382 576 152.482 560.6 152.682 529.2C152.882 497.8 156.582 423.6 156.582 423.6L113.982 409.2Z" fill="url(#paint84_linear_252_809)"/>
<path d="M0.681641 702.8C0.681641 702.8 6.68164 694.5 15.4816 690.3C15.4816 690.3 21.0816 690.7 27.7816 698C35.8816 706.9 39.9816 703.1 43.0816 700.8C46.2816 698.4 45.3816 712.9 45.2816 715.3C45.0816 719.9 47.7816 725.4 52.5816 732C57.2816 738.7 58.1816 742.3 55.7816 745.3C53.3816 748.3 42.6816 743.7 36.9816 739.2C31.2816 734.8 0.681641 702.8 0.681641 702.8Z" fill="url(#paint85_linear_252_809)"/>
<path d="M8.7824 704.6C2.5824 698.7 -3.3176 703 2.1824 709.2C7.6824 715.3 30.7824 734.2 30.7824 734.2C46.1824 747.9 55.7824 747.3 50.8824 743.8C39.0824 735.6 8.7824 704.6 8.7824 704.6Z" fill="url(#paint86_linear_252_809)"/>
<path d="M145.282 296.8C145.282 296.8 148.082 284 146.882 279.6C145.582 275.2 133.382 253.1 140.882 236.9C148.382 220.7 169.382 219 180.982 227.5C192.582 236 192.782 253.7 190.782 259.6C189.382 263.9 191.682 269.8 193.082 274.9C193.982 278.1 190.182 276.7 189.882 278.3C188.982 284.1 187.382 290.5 184.882 291.9C182.382 293.3 177.782 290.9 177.782 290.9L176.982 302.7L145.282 296.8Z" fill="url(#paint87_linear_252_809)"/>
<path d="M131.682 247.8C135.482 224.9 148.982 226.6 148.982 226.6C148.982 226.6 160.082 214.4 179.782 221.5C191.882 225.9 197.582 238.8 194.582 246.8C191.582 254.8 183.582 253.9 181.182 263.6C178.782 273.3 187.382 273.7 186.182 280.8C186.182 280.8 186.882 277.7 182.482 276.7C178.082 275.7 174.282 271.2 174.782 263.4C174.782 263.4 166.682 259.5 163.982 267.1C161.882 272.8 167.182 276.2 170.382 278.4C173.282 280.4 171.682 290 163.382 291.9C144.082 296.1 126.782 276.8 131.682 247.8Z" fill="url(#paint88_linear_252_809)"/>
<path d="M172.781 683.7C172.781 683.7 177.581 719.8 176.381 736.3C175.681 746.9 179.581 748.6 195.381 747.9C211.181 747.2 229.181 746.8 233.681 744C238.281 741.1 229.381 737.2 218.181 736C199.981 734.1 202.681 720.6 201.381 677.8L172.781 683.7Z" fill="url(#paint89_linear_252_809)"/>
<path d="M173.381 695.8C173.381 695.8 164.081 658.2 167.681 607.2C169.481 581.7 163.281 571.5 150.881 544.2C137.581 514.8 128.881 461 141.081 419.7L197.781 429.4C197.781 429.4 209.581 486.8 208.481 526.4C207.281 569.9 202.881 695.9 202.881 695.9C202.881 695.9 191.181 701.8 173.381 695.8Z" fill="url(#paint90_linear_252_809)"/>
<path d="M173.282 748.5C173.282 748.5 173.882 738.6 176.582 731.1C176.582 731.1 183.782 735.1 191.782 732.3C201.082 729 200.382 718.9 203.182 720.7C205.582 722.3 203.482 729.1 216.582 733C237.082 739 241.982 741.1 240.982 746.7C239.782 753.5 195.082 756.1 184.582 756.1C174.082 756.1 173.182 751 173.282 748.5Z" fill="url(#paint91_linear_252_809)"/>
<path d="M240.583 743.3C240.583 743.4 240.583 743.5 240.483 743.7C239.283 750.5 196.883 752.4 186.383 752.4C179.183 752.4 174.183 750.6 173.283 748.3C173.283 748.4 173.283 748.5 173.283 748.5C173.183 750.9 173.983 756.1 184.583 756.1C195.083 756.1 239.783 753.5 240.983 746.7C241.183 745.4 241.083 744.3 240.583 743.3Z" fill="url(#paint92_linear_252_809)"/>
<path d="M202.382 444.7C199.382 451 125.882 458.7 100.582 431C100.582 431 114.682 398.3 110.182 362.7C104.882 320.6 109.182 308.6 120.282 303.3C131.382 298 142.082 304.4 145.182 289.8L178.482 296.1C178.482 296.1 176.482 302.1 186.282 305.1C196.082 308.1 215.082 311.5 214.682 328.3C214.082 349.6 217.782 360.1 214.682 369.4C210.582 381.8 203.282 385.2 200.382 413C198.582 430.2 202.382 444.7 202.382 444.7Z" fill="url(#paint93_linear_252_809)"/>
<path d="M140.396 271.514C145.745 269.576 148.281 263.038 146.06 256.911C143.84 250.784 137.704 247.388 132.356 249.326C127.008 251.264 124.472 257.802 126.692 263.929C128.912 270.056 135.048 273.452 140.396 271.514Z" fill="white"/>
<path d="M134.482 251.8C125.382 251.2 103.382 254.9 107.182 277.1C110.982 299.3 117.482 303 105.482 312.6C93.4822 322.2 94.4822 338.5 112.582 342.3C134.882 346.9 155.682 338.6 156.682 310.7C157.382 291.1 145.982 282.7 141.482 276.3C136.982 269.9 141.582 269.7 143.182 262.7C144.982 254.9 137.682 252 134.482 251.8Z" fill="url(#paint94_linear_252_809)"/>
<path d="M277.383 292.4L317.283 303.1V359L277.383 348.3V292.4Z" fill="url(#paint95_linear_252_809)"/>
<path d="M261.883 280L302.283 290.8C302.283 290.8 304.383 324.6 284.483 335.7L243.383 325.3C243.383 325.3 265.083 310.8 261.883 280Z" fill="white"/>
<path d="M268.482 298L293.582 305" stroke="url(#paint96_linear_252_809)" stroke-width="3" stroke-miterlimit="10" stroke-linecap="round" stroke-linejoin="round"/>
<path d="M264.982 307.3L290.082 314.2" stroke="url(#paint97_linear_252_809)" stroke-width="3" stroke-miterlimit="10" stroke-linecap="round" stroke-linejoin="round"/>
<path d="M261.184 315.7L277.584 320.4" stroke="url(#paint98_linear_252_809)" stroke-width="3" stroke-miterlimit="10" stroke-linecap="round" stroke-linejoin="round"/>
<path d="M233.682 385.6C233.682 385.6 276.782 341.7 283.482 332.9C290.182 324.1 289.982 320.4 289.982 316.5C289.882 312.5 291.182 309.7 290.882 305.8C290.582 301.9 294.482 302.6 295.382 306C296.182 309.4 295.882 313.3 296.882 313.3C297.782 313.3 303.382 307.5 303.382 307.5C303.382 307.5 302.082 301.1 301.582 298.7C301.082 296.3 305.082 294.6 306.582 298.5C308.082 302.4 309.282 307.1 309.182 308.7C309.082 310.3 307.682 312.1 307.682 312.1C307.682 312.1 311.082 312.7 310.282 317.1C310.282 317.1 312.782 319.2 310.982 322.7C310.982 322.7 313.682 325.3 311.082 329.1C308.482 332.9 299.482 337.8 295.482 343.6C291.482 349.5 267.182 389.5 258.582 402.5L233.682 385.6Z" fill="url(#paint99_linear_252_809)"/>
<path d="M255.582 360.8C255.582 360.8 228.382 390.1 220.782 399.7C207.382 416.7 232.182 440.8 250.282 414.4C268.382 388 277.382 373.7 277.382 373.7C277.382 373.7 269.382 361.2 255.582 360.8Z" fill="url(#paint100_linear_252_809)"/>
<path d="M248.582 398.1C238.682 373.6 221.182 329.4 213.282 318.1C205.382 306.8 168.682 311.4 181.582 346.8C194.482 382.2 205.882 397.4 213.782 414.2C224.682 437.1 259.282 424.6 248.582 398.1Z" fill="url(#paint101_linear_252_809)"/>
<defs>
<linearGradient id="paint0_linear_252_809" x1="418.509" y1="644.7" x2="454.724" y2="488.124" gradientUnits="userSpaceOnUse">
<stop stop-color="white"/>
<stop offset="1" stop-color="#AEBDDF"/>
</linearGradient>
<linearGradient id="paint1_linear_252_809" x1="517.83" y1="506.712" x2="655.509" y2="631.126" gradientUnits="userSpaceOnUse">
<stop stop-color="white"/>
<stop offset="1" stop-color="#AEBDDF"/>
</linearGradient>
<linearGradient id="paint2_linear_252_809" x1="602.484" y1="690.415" x2="646.214" y2="635.642" gradientUnits="userSpaceOnUse">
<stop stop-color="white"/>
<stop offset="1" stop-color="#AEBDDF"/>
</linearGradient>
<linearGradient id="paint3_linear_252_809" x1="649.197" y1="753.077" x2="649.197" y2="570.972" gradientUnits="userSpaceOnUse">
<stop stop-color="white"/>
<stop offset="1" stop-color="#AEBDDF"/>
</linearGradient>
<linearGradient id="paint4_linear_252_809" x1="97.1807" y1="393.165" x2="234.859" y2="517.579" gradientUnits="userSpaceOnUse">
<stop stop-color="white"/>
<stop offset="1" stop-color="#AEBDDF"/>
</linearGradient>
<linearGradient id="paint5_linear_252_809" x1="181.835" y1="576.868" x2="225.565" y2="522.095" gradientUnits="userSpaceOnUse">
<stop stop-color="white"/>
<stop offset="1" stop-color="#AEBDDF"/>
</linearGradient>
<linearGradient id="paint6_linear_252_809" x1="228.548" y1="622.636" x2="228.548" y2="481.64" gradientUnits="userSpaceOnUse">
<stop stop-color="white"/>
<stop offset="1" stop-color="#AEBDDF"/>
</linearGradient>
<linearGradient id="paint7_linear_252_809" x1="340.96" y1="375.394" x2="340.96" y2="585.13" gradientUnits="userSpaceOnUse">
<stop stop-color="white"/>
<stop offset="1" stop-color="#AEBDDF"/>
</linearGradient>
<linearGradient id="paint8_linear_252_809" x1="751.325" y1="627.325" x2="529.43" y2="627.325" gradientUnits="userSpaceOnUse">
<stop stop-color="white"/>
<stop offset="1" stop-color="#AEBDDF"/>
</linearGradient>
<linearGradient id="paint9_linear_252_809" x1="385.369" y1="326.798" x2="385.369" y2="775.635" gradientUnits="userSpaceOnUse">
<stop stop-color="white"/>
<stop offset="1" stop-color="#AEBDDF"/>
</linearGradient>
<linearGradient id="paint10_linear_252_809" x1="721.707" y1="921.542" x2="687.237" y2="885.443" gradientUnits="userSpaceOnUse">
<stop stop-color="white"/>
<stop offset="1" stop-color="#AEBDDF"/>
</linearGradient>
<linearGradient id="paint11_linear_252_809" x1="623.843" y1="846.79" x2="748.519" y2="842.859" gradientUnits="userSpaceOnUse">
<stop stop-color="white"/>
<stop offset="1" stop-color="#AEBDDF"/>
</linearGradient>
<linearGradient id="paint12_linear_252_809" x1="698.613" y1="803.404" x2="610.711" y2="803.404" gradientUnits="userSpaceOnUse">
<stop stop-color="#ACBDDE"/>
<stop offset="1" stop-color="#2E405C"/>
</linearGradient>
<linearGradient id="paint13_linear_252_809" x1="669.027" y1="768.784" x2="669.027" y2="812.366" gradientUnits="userSpaceOnUse">
<stop stop-color="#ACBDDE"/>
<stop offset="1" stop-color="#2E405C"/>
</linearGradient>
<linearGradient id="paint14_linear_252_809" x1="767.125" y1="833.745" x2="665.168" y2="733.185" gradientUnits="userSpaceOnUse">
<stop stop-color="white"/>
<stop offset="1" stop-color="#AEBDDF"/>
</linearGradient>
<linearGradient id="paint15_linear_252_809" x1="601.427" y1="738.67" x2="620.282" y2="795.933" gradientUnits="userSpaceOnUse">
<stop stop-color="white"/>
<stop offset="1" stop-color="#AEBDDF"/>
</linearGradient>
<linearGradient id="paint16_linear_252_809" x1="710.643" y1="658.792" x2="553.286" y2="779.37" gradientUnits="userSpaceOnUse">
<stop stop-color="white"/>
<stop offset="1" stop-color="#AEBDDF"/>
</linearGradient>
<linearGradient id="paint17_linear_252_809" x1="720.642" y1="599.585" x2="712.262" y2="682.454" gradientUnits="userSpaceOnUse">
<stop stop-color="white"/>
<stop offset="1" stop-color="#AEBDDF"/>
</linearGradient>
<linearGradient id="paint18_linear_252_809" x1="796.684" y1="528.443" x2="669.017" y2="762.994" gradientUnits="userSpaceOnUse">
<stop stop-color="white"/>
<stop offset="1" stop-color="#AEBDDF"/>
</linearGradient>
<linearGradient id="paint19_linear_252_809" x1="578.781" y1="734.979" x2="624.715" y2="657.697" gradientUnits="userSpaceOnUse">
<stop stop-color="white"/>
<stop offset="1" stop-color="#AEBDDF"/>
</linearGradient>
<linearGradient id="paint20_linear_252_809" x1="449.097" y1="-0.325095" x2="449.097" y2="753.506" gradientUnits="userSpaceOnUse">
<stop stop-color="#038FF4"/>
<stop offset="1"/>
</linearGradient>
<linearGradient id="paint21_linear_252_809" x1="397.475" y1="213.283" x2="949.932" y2="1134.04" gradientUnits="userSpaceOnUse">
<stop stop-color="white"/>
<stop offset="1" stop-color="#AEBDDF"/>
</linearGradient>
<linearGradient id="paint22_linear_252_809" x1="756.842" y1="381.527" x2="201.681" y2="381.527" gradientUnits="userSpaceOnUse">
<stop stop-color="white"/>
<stop offset="1" stop-color="#AEBDDF"/>
</linearGradient>
<linearGradient id="paint23_linear_252_809" x1="756.842" y1="403.816" x2="201.681" y2="403.816" gradientUnits="userSpaceOnUse">
<stop stop-color="white"/>
<stop offset="1" stop-color="#AEBDDF"/>
</linearGradient>
<linearGradient id="paint24_linear_252_809" x1="756.842" y1="418.062" x2="201.681" y2="418.062" gradientUnits="userSpaceOnUse">
<stop stop-color="white"/>
<stop offset="1" stop-color="#AEBDDF"/>
</linearGradient>
<linearGradient id="paint25_linear_252_809" x1="557.735" y1="120.217" x2="1110.19" y2="1040.98" gradientUnits="userSpaceOnUse">
<stop stop-color="white"/>
<stop offset="1" stop-color="#AEBDDF"/>
</linearGradient>
<linearGradient id="paint26_linear_252_809" x1="717.746" y1="237.385" x2="567.486" y2="237.385" gradientUnits="userSpaceOnUse">
<stop stop-color="white"/>
<stop offset="1" stop-color="#AEBDDF"/>
</linearGradient>
<linearGradient id="paint27_linear_252_809" x1="717.746" y1="250.29" x2="567.486" y2="250.29" gradientUnits="userSpaceOnUse">
<stop stop-color="white"/>
<stop offset="1" stop-color="#AEBDDF"/>
</linearGradient>
<linearGradient id="paint28_linear_252_809" x1="505.38" y1="151.63" x2="1057.84" y2="1072.39" gradientUnits="userSpaceOnUse">
<stop stop-color="white"/>
<stop offset="1" stop-color="#AEBDDF"/>
</linearGradient>
<linearGradient id="paint29_linear_252_809" x1="228.619" y1="99.604" x2="228.619" y2="473.506" gradientUnits="userSpaceOnUse">
<stop stop-color="#038FF4"/>
<stop offset="1"/>
</linearGradient>
<linearGradient id="paint30_linear_252_809" x1="234.854" y1="248.542" x2="218.501" y2="223.821" gradientUnits="userSpaceOnUse">
<stop stop-color="#E9EDF6"/>
<stop offset="1" stop-color="#AEBDDF"/>
</linearGradient>
<linearGradient id="paint31_linear_252_809" x1="230.13" y1="261.054" x2="213.777" y2="236.333" gradientUnits="userSpaceOnUse">
<stop stop-color="#E9EDF6"/>
<stop offset="1" stop-color="#AEBDDF"/>
</linearGradient>
<linearGradient id="paint32_linear_252_809" x1="216.546" y1="267.196" x2="205.157" y2="249.981" gradientUnits="userSpaceOnUse">
<stop stop-color="#E9EDF6"/>
<stop offset="1" stop-color="#AEBDDF"/>
</linearGradient>
<linearGradient id="paint33_linear_252_809" x1="544.575" y1="62.2478" x2="544.575" y2="362.79" gradientUnits="userSpaceOnUse">
<stop stop-color="white"/>
<stop offset="1" stop-color="#AEBDDF"/>
</linearGradient>
<linearGradient id="paint34_linear_252_809" x1="510.794" y1="187.857" x2="510.794" y2="371.363" gradientUnits="userSpaceOnUse">
<stop stop-color="#038FF4"/>
<stop offset="1"/>
</linearGradient>
<linearGradient id="paint35_linear_252_809" x1="477.01" y1="62.2478" x2="477.01" y2="362.79" gradientUnits="userSpaceOnUse">
<stop stop-color="white"/>
<stop offset="1" stop-color="#AEBDDF"/>
</linearGradient>
<linearGradient id="paint36_linear_252_809" x1="443.229" y1="62.2478" x2="443.229" y2="362.79" gradientUnits="userSpaceOnUse">
<stop stop-color="white"/>
<stop offset="1" stop-color="#AEBDDF"/>
</linearGradient>
<linearGradient id="paint37_linear_252_809" x1="409.446" y1="62.2477" x2="409.446" y2="362.79" gradientUnits="userSpaceOnUse">
<stop stop-color="white"/>
<stop offset="1" stop-color="#AEBDDF"/>
</linearGradient>
<linearGradient id="paint38_linear_252_809" x1="697.185" y1="283.245" x2="644.36" y2="283.245" gradientUnits="userSpaceOnUse">
<stop stop-color="#DFE5F2"/>
<stop offset="1" stop-color="#AEBDDF"/>
</linearGradient>
<linearGradient id="paint39_linear_252_809" x1="697.186" y1="270.124" x2="659.201" y2="270.124" gradientUnits="userSpaceOnUse">
<stop stop-color="#038FF4"/>
<stop offset="1" stop-color="#3D2200"/>
</linearGradient>
<linearGradient id="paint40_linear_252_809" x1="651.866" y1="343.936" x2="651.866" y2="434.624" gradientUnits="userSpaceOnUse">
<stop stop-color="#038FF4"/>
<stop offset="1"/>
</linearGradient>
<linearGradient id="paint41_linear_252_809" x1="650.852" y1="384.367" x2="650.852" y2="407.418" gradientUnits="userSpaceOnUse">
<stop stop-color="#038FF4"/>
<stop offset="1"/>
</linearGradient>
<linearGradient id="paint42_linear_252_809" x1="252.873" y1="183.414" x2="252.873" y2="170.253" gradientUnits="userSpaceOnUse">
<stop stop-color="#038FF4"/>
<stop offset="1" stop-color="#432602"/>
</linearGradient>
<linearGradient id="paint43_linear_252_809" x1="178.495" y1="154.746" x2="291.857" y2="154.746" gradientUnits="userSpaceOnUse">
<stop stop-color="#ACBDDE"/>
<stop offset="1" stop-color="#2E405C"/>
</linearGradient>
<linearGradient id="paint44_linear_252_809" x1="251.86" y1="117.35" x2="253.197" y2="140.878" gradientUnits="userSpaceOnUse">
<stop stop-color="#ACBDDE"/>
<stop offset="1" stop-color="#2E405C"/>
</linearGradient>
<linearGradient id="paint45_linear_252_809" x1="249.641" y1="10.7826" x2="256.482" y2="131.434" gradientUnits="userSpaceOnUse">
<stop stop-color="white"/>
<stop offset="1" stop-color="#AEBDDF"/>
</linearGradient>
<linearGradient id="paint46_linear_252_809" x1="658.634" y1="183.805" x2="658.634" y2="169.457" gradientUnits="userSpaceOnUse">
<stop stop-color="#038FF4"/>
<stop offset="1"/>
</linearGradient>
<linearGradient id="paint47_linear_252_809" x1="615.593" y1="154.746" x2="733.778" y2="154.746" gradientUnits="userSpaceOnUse">
<stop stop-color="#ACBDDE"/>
<stop offset="1" stop-color="#2E405C"/>
</linearGradient>
<linearGradient id="paint48_linear_252_809" x1="657.62" y1="117.35" x2="658.956" y2="140.878" gradientUnits="userSpaceOnUse">
<stop stop-color="#ACBDDE"/>
<stop offset="1" stop-color="#2E405C"/>
</linearGradient>
<linearGradient id="paint49_linear_252_809" x1="655.4" y1="10.7826" x2="662.241" y2="131.434" gradientUnits="userSpaceOnUse">
<stop stop-color="white"/>
<stop offset="1" stop-color="#AEBDDF"/>
</linearGradient>
<linearGradient id="paint50_linear_252_809" x1="367.436" y1="526.572" x2="618.361" y2="606.051" gradientUnits="userSpaceOnUse">
<stop stop-color="#FFD2BB"/>
<stop offset="1" stop-color="#FF6B5A"/>
</linearGradient>
<linearGradient id="paint51_linear_252_809" x1="362.728" y1="614.637" x2="616.052" y2="543.206" gradientUnits="userSpaceOnUse">
<stop stop-color="#FFD2BB"/>
<stop offset="1" stop-color="#FF6B5A"/>
</linearGradient>
<linearGradient id="paint52_linear_252_809" x1="518.677" y1="448.11" x2="518.677" y2="752.887" gradientUnits="userSpaceOnUse">
<stop stop-color="white"/>
<stop offset="1" stop-color="#AEBDDF"/>
</linearGradient>
<linearGradient id="paint53_linear_252_809" x1="412.374" y1="480.458" x2="413.156" y2="586.893" gradientUnits="userSpaceOnUse">
<stop stop-color="#ACBDDE"/>
<stop offset="1" stop-color="#2E405C"/>
</linearGradient>
<linearGradient id="paint54_linear_252_809" x1="371.278" y1="454.14" x2="371.278" y2="561.2" gradientUnits="userSpaceOnUse">
<stop stop-color="#ACBDDE"/>
<stop offset="1" stop-color="#2E405C"/>
</linearGradient>
<linearGradient id="paint55_linear_252_809" x1="408.498" y1="493.27" x2="408.498" y2="557.478" gradientUnits="userSpaceOnUse">
<stop stop-color="#ACBDDE"/>
<stop offset="1" stop-color="#2E405C"/>
</linearGradient>
<linearGradient id="paint56_linear_252_809" x1="364.726" y1="479.296" x2="364.726" y2="562.49" gradientUnits="userSpaceOnUse">
<stop stop-color="white"/>
<stop offset="1" stop-color="#AEBDDF"/>
</linearGradient>
<linearGradient id="paint57_linear_252_809" x1="355.894" y1="457.039" x2="355.894" y2="531.867" gradientUnits="userSpaceOnUse">
<stop stop-color="white"/>
<stop offset="1" stop-color="#AEBDDF"/>
</linearGradient>
<linearGradient id="paint58_linear_252_809" x1="347.059" y1="494.3" x2="347.059" y2="577.493" gradientUnits="userSpaceOnUse">
<stop stop-color="white"/>
<stop offset="1" stop-color="#AEBDDF"/>
</linearGradient>
<linearGradient id="paint59_linear_252_809" x1="334.056" y1="517.27" x2="334.056" y2="701.968" gradientUnits="userSpaceOnUse">
<stop stop-color="#ACBDDE"/>
<stop offset="1" stop-color="#2E405C"/>
</linearGradient>
<linearGradient id="paint60_linear_252_809" x1="329.924" y1="508.923" x2="329.924" y2="600.322" gradientUnits="userSpaceOnUse">
<stop stop-color="#ACBDDE"/>
<stop offset="1" stop-color="#2E405C"/>
</linearGradient>
<linearGradient id="paint61_linear_252_809" x1="435.297" y1="498.03" x2="360.166" y2="671.769" gradientUnits="userSpaceOnUse">
<stop stop-color="#ACBDDE"/>
<stop offset="1" stop-color="#2E405C"/>
</linearGradient>
<linearGradient id="paint62_linear_252_809" x1="477.435" y1="368.446" x2="471.91" y2="501.898" gradientUnits="userSpaceOnUse">
<stop stop-color="#FFD2BB"/>
<stop offset="1" stop-color="#FF6B5A"/>
</linearGradient>
<linearGradient id="paint63_linear_252_809" x1="479.268" y1="266.544" x2="479.268" y2="459.225" gradientUnits="userSpaceOnUse">
<stop stop-color="#ACBDDE"/>
<stop offset="1" stop-color="#2E405C"/>
</linearGradient>
<linearGradient id="paint64_linear_252_809" x1="608.188" y1="915.412" x2="479.44" y2="915.412" gradientUnits="userSpaceOnUse">
<stop stop-color="white" stop-opacity="0"/>
<stop offset="1" stop-color="#AEBDDF"/>
</linearGradient>
<linearGradient id="paint65_linear_252_809" x1="506.842" y1="925.984" x2="419.55" y2="925.984" gradientUnits="userSpaceOnUse">
<stop stop-color="white" stop-opacity="0"/>
<stop offset="1" stop-color="#AEBDDF"/>
</linearGradient>
<linearGradient id="paint66_linear_252_809" x1="484.469" y1="920.284" x2="484.469" y2="853.775" gradientUnits="userSpaceOnUse">
<stop stop-color="white"/>
<stop offset="1" stop-color="#AEBDDF"/>
</linearGradient>
<linearGradient id="paint67_linear_252_809" x1="503.505" y1="992.479" x2="503.505" y2="675.555" gradientUnits="userSpaceOnUse">
<stop stop-color="#ACBDDE"/>
<stop offset="1" stop-color="#2E405C"/>
</linearGradient>
<linearGradient id="paint68_linear_252_809" x1="474.258" y1="785.069" x2="484.345" y2="904.384" gradientUnits="userSpaceOnUse">
<stop stop-color="white"/>
<stop offset="1" stop-color="#AEBDDF"/>
</linearGradient>
<linearGradient id="paint69_linear_252_809" x1="400.082" y1="933.327" x2="400.082" y2="863.933" gradientUnits="userSpaceOnUse">
<stop stop-color="white"/>
<stop offset="1" stop-color="#AEBDDF"/>
</linearGradient>
<linearGradient id="paint70_linear_252_809" x1="457.249" y1="987.364" x2="457.249" y2="668.982" gradientUnits="userSpaceOnUse">
<stop stop-color="#ACBDDE"/>
<stop offset="1" stop-color="#2E405C"/>
</linearGradient>
<linearGradient id="paint71_linear_252_809" x1="403.495" y1="885.634" x2="399.792" y2="926.364" gradientUnits="userSpaceOnUse">
<stop stop-color="white"/>
<stop offset="1" stop-color="#AEBDDF"/>
</linearGradient>
<linearGradient id="paint72_linear_252_809" x1="475.83" y1="439.923" x2="478.2" y2="522.205" gradientUnits="userSpaceOnUse">
<stop stop-color="#ACBDDE"/>
<stop offset="1" stop-color="#2E405C"/>
</linearGradient>
<linearGradient id="paint73_linear_252_809" x1="477.592" y1="448.11" x2="477.592" y2="752.887" gradientUnits="userSpaceOnUse">
<stop stop-color="white"/>
<stop offset="1" stop-color="#AEBDDF"/>
</linearGradient>
<linearGradient id="paint74_linear_252_809" x1="248.552" y1="569.207" x2="510.44" y2="595.524" gradientUnits="userSpaceOnUse">
<stop stop-color="#FFD2BB"/>
<stop offset="1" stop-color="#FF6B5A"/>
</linearGradient>
<linearGradient id="paint75_linear_252_809" x1="425.219" y1="448.11" x2="425.219" y2="752.886" gradientUnits="userSpaceOnUse">
<stop stop-color="white"/>
<stop offset="1" stop-color="#AEBDDF"/>
</linearGradient>
<linearGradient id="paint76_linear_252_809" x1="253.804" y1="549.93" x2="506.947" y2="622.049" gradientUnits="userSpaceOnUse">
<stop stop-color="#FFD2BB"/>
<stop offset="1" stop-color="#FF6B5A"/>
</linearGradient>
<linearGradient id="paint77_linear_252_809" x1="200.025" y1="881.747" x2="200.025" y2="806.421" gradientUnits="userSpaceOnUse">
<stop stop-color="white"/>
<stop offset="1" stop-color="#AEBDDF"/>
</linearGradient>
<linearGradient id="paint78_linear_252_809" x1="-nan" y1="-nan" x2="-nan" y2="-nan" gradientUnits="userSpaceOnUse">
<stop stop-color="#5D6E8C"/>
<stop offset="1" stop-color="#2E405C"/>
</linearGradient>
<linearGradient id="paint79_linear_252_809" x1="146.748" y1="858.413" x2="146.748" y2="743.802" gradientUnits="userSpaceOnUse">
<stop stop-color="#5D6E8C"/>
<stop offset="1" stop-color="#2E405C"/>
</linearGradient>
<linearGradient id="paint80_linear_252_809" x1="253.299" y1="858.413" x2="253.299" y2="743.802" gradientUnits="userSpaceOnUse">
<stop stop-color="#5D6E8C"/>
<stop offset="1" stop-color="#2E405C"/>
</linearGradient>
<linearGradient id="paint81_linear_252_809" x1="72.0593" y1="766.541" x2="281.088" y2="766.541" gradientUnits="userSpaceOnUse">
<stop stop-color="white"/>
<stop offset="1" stop-color="#AEBDDF"/>
</linearGradient>
<linearGradient id="paint82_linear_252_809" x1="200.024" y1="767.675" x2="200.024" y2="618.848" gradientUnits="userSpaceOnUse">
<stop stop-color="white"/>
<stop offset="1" stop-color="#AEBDDF"/>
</linearGradient>
<linearGradient id="paint83_linear_252_809" x1="101.443" y1="728.093" x2="-26.1686" y2="652.325" gradientUnits="userSpaceOnUse">
<stop stop-color="#FFD2BB"/>
<stop offset="1" stop-color="#FF6B5A"/>
</linearGradient>
<linearGradient id="paint84_linear_252_809" x1="98.4023" y1="936.321" x2="98.4023" y2="442.06" gradientUnits="userSpaceOnUse">
<stop stop-color="#ACBDDE"/>
<stop offset="1" stop-color="#2E405C"/>
</linearGradient>
<linearGradient id="paint85_linear_252_809" x1="75.3666" y1="649.411" x2="5.31817" y2="760.314" gradientUnits="userSpaceOnUse">
<stop stop-color="white"/>
<stop offset="1" stop-color="#AEBDDF"/>
</linearGradient>
<linearGradient id="paint86_linear_252_809" x1="44.9969" y1="755.243" x2="-30.1845" y2="638.128" gradientUnits="userSpaceOnUse">
<stop stop-color="#ACBDDE"/>
<stop offset="1" stop-color="#2E405C"/>
</linearGradient>
<linearGradient id="paint87_linear_252_809" x1="195.769" y1="244.778" x2="117.544" y2="293.08" gradientUnits="userSpaceOnUse">
<stop stop-color="#FFD2BB"/>
<stop offset="1" stop-color="#FF6B5A"/>
</linearGradient>
<linearGradient id="paint88_linear_252_809" x1="163.113" y1="102.197" x2="163.113" y2="304.164" gradientUnits="userSpaceOnUse">
<stop stop-color="#ACBDDE"/>
<stop offset="1" stop-color="#2E405C"/>
</linearGradient>
<linearGradient id="paint89_linear_252_809" x1="264.658" y1="702.658" x2="122.885" y2="728.631" gradientUnits="userSpaceOnUse">
<stop stop-color="#FFD2BB"/>
<stop offset="1" stop-color="#FF6B5A"/>
</linearGradient>
<linearGradient id="paint90_linear_252_809" x1="171.954" y1="777.501" x2="171.954" y2="447.097" gradientUnits="userSpaceOnUse">
<stop stop-color="#ACBDDE"/>
<stop offset="1" stop-color="#2E405C"/>
</linearGradient>
<linearGradient id="paint91_linear_252_809" x1="207.189" y1="758.762" x2="207.189" y2="723.306" gradientUnits="userSpaceOnUse">
<stop stop-color="white"/>
<stop offset="1" stop-color="#AEBDDF"/>
</linearGradient>
<linearGradient id="paint92_linear_252_809" x1="241.119" y1="739.98" x2="93.2969" y2="777.921" gradientUnits="userSpaceOnUse">
<stop stop-color="#ACBDDE"/>
<stop offset="1" stop-color="#2E405C"/>
</linearGradient>
<linearGradient id="paint93_linear_252_809" x1="314.32" y1="370.263" x2="26.173" y2="370.263" gradientUnits="userSpaceOnUse">
<stop stop-color="#038FF4"/>
<stop offset="1" stop-color="#402401"/>
</linearGradient>
<linearGradient id="paint94_linear_252_809" x1="127.06" y1="102.197" x2="127.06" y2="304.164" gradientUnits="userSpaceOnUse">
<stop stop-color="#ACBDDE"/>
<stop offset="1" stop-color="#2E405C"/>
</linearGradient>
<linearGradient id="paint95_linear_252_809" x1="297.346" y1="163.89" x2="297.346" y2="439.886" gradientUnits="userSpaceOnUse">
<stop stop-color="#038FF4"/>
<stop offset="1"/>
</linearGradient>
<linearGradient id="paint96_linear_252_809" x1="266.962" y1="301.514" x2="295.082" y2="301.514" gradientUnits="userSpaceOnUse">
<stop stop-color="#AEBDDF"/>
<stop offset="1" stop-color="#E9EDF6"/>
</linearGradient>
<linearGradient id="paint97_linear_252_809" x1="283.787" y1="320.201" x2="271.282" y2="301.299" gradientUnits="userSpaceOnUse">
<stop stop-color="#E9EDF6"/>
<stop offset="1" stop-color="#AEBDDF"/>
</linearGradient>
<linearGradient id="paint98_linear_252_809" x1="273.761" y1="324.735" x2="264.921" y2="311.373" gradientUnits="userSpaceOnUse">
<stop stop-color="#E9EDF6"/>
<stop offset="1" stop-color="#AEBDDF"/>
</linearGradient>
<linearGradient id="paint99_linear_252_809" x1="354.109" y1="245.539" x2="142.919" y2="532.179" gradientUnits="userSpaceOnUse">
<stop stop-color="#FFD2BB"/>
<stop offset="1" stop-color="#FF6B5A"/>
</linearGradient>
<linearGradient id="paint100_linear_252_809" x1="314.32" y1="393.472" x2="26.1732" y2="393.472" gradientUnits="userSpaceOnUse">
<stop stop-color="#038FF4"/>
<stop offset="1"/>
</linearGradient>
<linearGradient id="paint101_linear_252_809" x1="314.32" y1="369.392" x2="26.1729" y2="369.392" gradientUnits="userSpaceOnUse">
<stop stop-color="#038FF4"/>
<stop offset="1" stop-color="#462904"/>
</linearGradient>
</defs>
</svg>
