<svg width="30" height="30" viewBox="0 0 30 30" fill="none" xmlns="http://www.w3.org/2000/svg">
<path d="M29.8046 15.3421C29.8059 14.32 29.7188 13.2996 29.5445 12.2922H15.3008V18.069H23.4589C23.292 18.9917 22.9386 19.8712 22.4202 20.6546C21.9018 21.4379 21.229 22.1089 20.4424 22.6271V26.3769H25.3112C28.1621 23.7667 29.8046 19.9064 29.8046 15.3421Z" fill="#4285F4"/>
<path d="M15.2995 30C19.3754 30 22.8073 28.6709 25.3099 26.3794L20.4411 22.6296C19.0859 23.542 17.3406 24.0628 15.2995 24.0628C11.3599 24.0628 8.01611 21.4254 6.8204 17.8715H1.80469V21.7358C3.0618 24.2201 4.98944 26.3084 7.3724 27.7677C9.75537 29.227 12.4999 29.9999 15.2995 30Z" fill="#34A853"/>
<path d="M6.82126 17.8709C6.18913 16.0086 6.18913 13.9918 6.82126 12.1295V8.26514H1.80555C0.748024 10.3549 0.197266 12.6614 0.197266 15.0002C0.197266 17.3391 0.748024 19.6455 1.80555 21.7353L6.82126 17.8709Z" fill="#FBBC04"/>
<path d="M15.2995 5.93819C17.4534 5.90324 19.5347 6.71143 21.0935 8.18807L25.4043 3.90704C22.6708 1.35732 19.0495 -0.0425118 15.2995 0.000984091C12.4999 0.0011108 9.75537 0.773976 7.3724 2.23329C4.98944 3.69261 3.0618 5.78095 1.80469 8.26515L6.8204 12.1295C8.01611 8.57555 11.3599 5.93819 15.2995 5.93819Z" fill="#EA4335"/>
</svg>
